STARTFONT 2.1
COMMENT
COMMENT Converted from OpenType font "Font 90 Icons.ttf" by "otf2bdf 3.0".
COMMENT
FONT -FreeType-Font 90 Icons-Medium-R-Normal--59-430-100-100-P-221-ISO10646-1
SIZE 43 100 100
FONTBOUNDINGBOX 64 62 0 -12
STARTPROPERTIES 19
FOUNDRY "FreeType"
FAMILY_NAME "Font 90 Icons"
WEIGHT_NAME "Medium"
SLANT "R"
SETWIDTH_NAME "Normal"
ADD_STYLE_NAME ""
PIXEL_SIZE 59
POINT_SIZE 430
RESOLUTION_X 100
RESOLUTION_Y 100
SPACING "P"
AVERAGE_WIDTH 221
CHARSET_REGISTRY "ISO10646"
CHARSET_ENCODING "1"
FONT_ASCENT 50
FONT_DESCENT 12
COPYRIGHT "Typeface © (el-harrak.blogspot.com). <darrati10@gmail.com>. All Rights Reserved"
_OTF_FONTFILE "Font 90 Icons.ttf"
_OTF_PSNAME "Font 90 Icons"
ENDPROPERTIES
CHARS 242
STARTCHAR 0000
ENCODING 0
SWIDTH 0 0
DWIDTH 0 0
BBX 0 0 0 0
BITMAP
ENDCHAR
STARTCHAR 001D
ENCODING 29
SWIDTH 0 0
DWIDTH 0 0
BBX 0 0 0 0
BITMAP
ENDCHAR
STARTCHAR 0020
ENCODING 32
SWIDTH 251 0
DWIDTH 15 0
BBX 0 0 0 0
BITMAP
ENDCHAR
STARTCHAR 0021
ENCODING 33
SWIDTH 987 0
DWIDTH 59 0
BBX 58 58 0 -10
BITMAP
000001FFE0000000
00000FFFFE000000
00007FFF3F800000
0001FFFFE3E00000
0003FFFFF8780000
000FFFFFFE1C0000
001FFFFFFF0F0000
003FFFFFFF038000
007FFFFFFF81C000
00FFFFFFFFC0E000
01FFFFFFFFC07000
03FFFFFFFFC03000
07FFFFE0FFE01800
07FFFFC07FE00C00
0FFFFFC07FE00C00
0FFFFF807FE00600
1FFFFFC07FE00600
1FFFFFC07FE00300
3FFFFFE0FFC00300
3FFFFFFFFFC00180
3FFFFFFFFFC00180
7FFFFFFFFF800180
7FFFFFFFFF8000C0
7FFFFFFFFF0000C0
7FFFFFFFFE0000C0
7FFFFFFFFC0000C0
FFFFFFFFF80000C0
FFFFFFFFE00000C0
FFFFFFFF000000C0
FFFFFF80000000C0
FFFFFE00000000C0
FFFFF800000000C0
7FFFF000000000C0
7FFFE000000000C0
7FFFC000000000C0
7FFFC00000000180
7FFF800000000180
3FFF800000000180
3FFF000400000380
3FFF001F00000300
1FFF003F80000300
1FFF003F80000600
0FFF007F80000600
0FFF003F80000C00
07FF003F80001C00
03FF001F00003800
03FF000000003000
01FF800000006000
00FF80000000C000
007FC0000001C000
003FC00000070000
001FE000000E0000
0007F000003C0000
0003FC0000F80000
0000FE0003E00000
00003FC03F800000
00000FFFFC000000
0000003FC0000000
ENDCHAR
STARTCHAR 0022
ENCODING 34
SWIDTH 987 0
DWIDTH 59 0
BBX 58 46 0 -4
BITMAP
000007FFFC000000
00000FFFFC000000
00000F001E000000
00000E000E000000
00000E000E000000
00000E0006000000
00000C000E000000
00000E000E000000
1FFFFFFFFFFFFF00
3FFFFFFFFFFFFF80
7FFFFFFFFFFFFFC0
7FFFFFFFFFFFFFC0
7FFFFFFFFFFFFFC0
FFFFFFFFFFFFFFC0
FFFFFFFFFFFFFFC0
FFFFFFFFFFFFFFC0
FFFFFFFFFFFFFFC0
FFFFFFFFFFFFFFC0
FFFFFFFFFFFFFFC0
FFFFFFFFFFFFFFC0
FFFFFFFFFFFFFFC0
FFFFFFFFFFFFFFC0
FFFFFFFFFFFFFFC0
FFFFFFFFFFFFFFC0
FFFFFFFFFFFFFFC0
FFFFFFFFFFFFFFC0
FFFFFFFFFFFFFFC0
FFFFFFFFFFFFFFC0
FFFFFFFFFFFFFFC0
FFFFFFFFFFFFFFC0
FFFFFFFFFFFFFFC0
FFFFFFFFFFFFFFC0
FFFFFFFFFFFFFFC0
FFFFFFFFFFFFFFC0
FFFFFFFFFFFFFFC0
FFFFFFFFFFFFFFC0
FFFFFFFFFFFFFFC0
FFFFFFFFFFFFFFC0
FFFFFFFFFFFFFFC0
FFFFFFFFFFFFFFC0
FFFFFFFFFFFFFFC0
7FFFFFFFFFFFFFC0
7FFFFFFFFFFFFFC0
7FFFFFFFFFFFFF80
3FFFFFFFFFFFFF80
0FFFFFFFFFFFFE00
ENDCHAR
STARTCHAR 0023
ENCODING 35
SWIDTH 987 0
DWIDTH 59 0
BBX 55 61 2 -12
BITMAP
00000E00000000
0001FFF0000000
0007FFFE000000
FC1FFFFFC00000
FC3FFFFFF00000
FEFFFFFFFE0040
7E7FFFFFFFFFC0
7E7FFFFFFFFFC0
7E7FFFFFFFFFE0
7E7FFFFFFFFFE0
7E7FFFFFFFFFE0
7F7FFFFFFFFFE0
3F3FFFFFFFFFE0
3F3FFFFFFFFFE0
3F3FFFFFFFFFF0
3F3FFFFFFFFFF0
3FBFFFFFFFFFF0
1F9FFFFFFFFFF0
1F9FFFFFFFFFF0
1F9FFFFFFFFFF0
1F9FFFFFFFFFF0
1F9FFFFFFFFFF8
1FCFFFFFFFFFF8
0FCFFFFFFFFFF8
0FCFFFFFFFFFF8
0FCFFFFFFFFFF8
0FCFFFFFFFFFF8
0FE7FFFFFFFFFC
0FE7FFC3FFFFFC
07E7FC001FFFFC
07E7E00007FFFC
07E7800000FFFC
07E70000003FFC
07F40000000FFC
03F000000001FE
03F00000000000
03F00000000000
03F00000000000
03F80000000000
03F80000000000
01F80000000000
01F80000000000
01F80000000000
01F80000000000
01FC0000000000
01FC0000000000
00FC0000000000
00FC0000000000
00FC0000000000
00FC0000000000
00FE0000000000
007E0000000000
007E0000000000
007E0000000000
007E0000000000
007F0000000000
007F0000000000
003F0000000000
003F0000000000
003F0000000000
003F0000000000
ENDCHAR
STARTCHAR 0024
ENCODING 36
SWIDTH 987 0
DWIDTH 59 0
BBX 58 58 0 -10
BITMAP
0078000000000000
01FE000000000000
03FF000000000000
07FF800000000000
0FFFC00000000000
1FFFC00000000000
3FFFE00000000000
7FFFF00000000000
7FFFF80000000000
FFFFFC0000000000
FFFFFF0000000000
FFFFFF8000000000
7FFFFFC000000000
7FFFFFE000000000
3FFFFFF000000000
1FFFFFEC00000000
0FFFFFDE00000000
07FFFFBF00000000
03FFFF7FC0000000
01FFFEFFE0000000
00FFFDFFF0000000
007FFBFFF0000000
003FF7FFE0000000
001FEFFFC0000000
000FDFFF80000000
0007BFFF00000000
00077FFE00000000
0002FFFC00000000
0001FFFE00000000
0001FFFF00000000
0000FFE780000000
00007FC3C0000000
00003F81E0000000
00001F00E0000000
00000E0070000000
00000C0038000000
000000001C000000
000000000E000000
0000000007000000
0000000003800000
0000000001C00000
0000000000E00000
0000000000300000
0000000000180000
00000000000C0000
0000000000060000
0000000000030000
0000000000010000
0000000000008000
0000000000004000
0000000000002000
0000000000001000
0000000000000800
0000000000000400
0000000000000200
0000000000000100
0000000000000080
0000000000000040
ENDCHAR
STARTCHAR 0025
ENCODING 37
SWIDTH 987 0
DWIDTH 59 0
BBX 55 62 2 -12
BITMAP
00000038000000
000000FE000000
000001FF000000
000003FF000000
000003FF000000
000003FF000000
000003FF800000
00001FFFF00000
0000FFFFFC0000
0001FFFFFF0000
0007FFFFFFC000
000FFFFFFFE000
003FFFFFFFF000
1E7FFFFFFFF9F0
7FFFF8FE7FFFF8
7FFFE0FE0FFFFC
FFFF80FC07FFFC
FFFF00FC01FFFE
FFFE007C00FFFC
FFFE007800FFFC
7FFF007801FFFC
7FFF807803FFF8
1FFFC03807FFF0
0FFFE0380FFFE0
1FFFF0381FFFF0
1FFFF8787FFFF0
1FCFFEFDFF8FF0
1FC07FFFF807F0
3FC00FFFE007F0
3FC007FF8007F0
3FC003FF8007F0
3FC003FF8007F0
3FC007FF8007F0
3FC00FFFE007F0
1FC0FFFFFC07F0
1FC7FFFDFFCFF0
1FFFF8783FFFF0
1FFFF0381FFFF0
1FFFE0380FFFE0
1FFFC07807FFF0
7FFF807C03FFF8
7FFF007C01FFFC
FFFE007C00FFFE
FFFE00FC00FFFE
FFFF00FC01FFFE
FFFFC0FE07FFFE
7FFFE0FE0FFFFC
3FFFFDFE7FFFF8
0C3FFFFFFFF8E0
001FFFFFFFF000
000FFFFFFFE000
0007FFFFFFC000
0001FFFFFF0000
0000FFFFFC0000
00001FFFF00000
000003FF000000
000003FF000000
000001FF000000
000001FF000000
000001FE000000
000000FC000000
00000010000000
ENDCHAR
STARTCHAR 0026
ENCODING 38
SWIDTH 987 0
DWIDTH 59 0
BBX 58 58 0 -10
BITMAP
000000FFE0000000
00000FFFFC000000
00007FFFFF800000
0001FFF3FFE00000
0003FC0007F80000
000FE00001FC0000
001F8000007E0000
003E0000001F8000
007C01FFF00FC000
00F80FFFFC03E000
01F01FFFFF01F000
03E07FFFFFC0F000
07C0FFFFFFE07800
0781FFFFFFF03C00
0F03FFFFFFF83C00
0F07FFFFFFFC1E00
1E0FFFFFFFFE1E00
1E1FFFFFFFFE0F00
3C1F9FFFFFFF0700
3C3FCFFFFFFF0780
383FE7FFFCFF8780
787FF3FFF8FF8380
787FF9FFF1FFC380
707FFCFFE3FFC3C0
70FFFE7FC7FFC3C0
70FFFF3F8FFFC3C0
70FFFF9F1FFFC1C0
F0FFFFCE3FFFC1C0
F0FFFFE07FFFE1C0
F0FFFFE0FFFFE1C0
F0FFFFE0FFFFC1C0
70FFFFF0FFFFC1C0
70FFFFFBFFFFC3C0
70FFFFFFFFFFC3C0
707FFFFFFFFFC3C0
787FFFFFFFFF8380
787FFFFFFFFF8380
383FFFFFFFFF8780
3C3FFFFFFFFF0700
3C1FFFFFFFFF0F00
1E1FFFFFFFFE0F00
1E0FFFFFFFFC1E00
0F07FFFFFFFC1E00
0F03FFFFFFF83C00
0781FFFFFFF07C00
03C0FFFFFFE0F800
03E07FFFFF80F000
01F01FFFFE01E000
00F807FFF807C000
007C00FFC00F8000
003F0000001F0000
001FC000007E0000
0007F00001FC0000
0003FE001FF00000
0000FFFFFFE00000
00003FFFFF000000
000007FFFC000000
0000001F00000000
ENDCHAR
STARTCHAR 0027
ENCODING 39
SWIDTH 987 0
DWIDTH 59 0
BBX 57 58 1 -10
BITMAP
00007FE000000000
0003FFFC00000000
001FFFFF80000000
003FFFFFC0000000
00FFFFFFF0000000
01FFFFFFF8000000
03FFFFFFFC000000
07FFFFFFFE000000
0FFFFFFFFF000000
0FFF801FFF800000
1FFE0007FF800000
3FFC0001FFC00000
3FF00F00FFC00000
7FE01F807FE00000
7FE01F807FE00000
7FC01F803FE00000
FFC01F801FF00000
FF801F801FF00000
FF801F801FF00000
FF83FFFE0FF00000
FF0FFFFF0FF00000
FF1FFFFF0FF80000
FF1FFFFF8FF80000
FF0FFFFF0FF80000
FF0FFFFE0FF00000
FF801F800FF00000
FF801F801FF00000
FF801F801FF00000
FFC01F803FF00000
7FC01F803FE00000
7FE01F807FE00000
7FF00F00FFE00000
3FF80601FFC00000
3FFC0003FFC00000
1FFE0007FFE00000
0FFFC03FFFF00000
07FFFFFFFFF80000
07FFFFFFFFFC0000
03FFFFFFFFFE0000
01FFFFFFFFFF0000
007FFFFFFFFF8000
003FFFFFFFFFC000
000FFFFFFFFFE000
0003FFFCFFFFF000
00003FC07FFFF800
000000003FFFFC00
000000001FFFFE00
000000000FFFFF00
0000000007FFFF00
0000000003FFFF80
0000000001FFFF80
0000000000FFFF80
00000000007FFF80
00000000003FFF80
00000000001FFF00
00000000000FFF00
000000000007FE00
000000000001F800
ENDCHAR
STARTCHAR 0028
ENCODING 40
SWIDTH 987 0
DWIDTH 59 0
BBX 58 59 0 -10
BITMAP
0000010000000000
0000FFFC00000000
0003FFFF00000000
000FFFFFC0000000
003FFFFFF0000000
007FFFFFF8000000
00FFFFFFFC000000
01FFFFFFFE000000
03FFFFFFFF000000
07FFF03FFF800000
0FFF8007FFC00000
0FFE0001FFC00000
1FFC0000FFE00000
1FF800007FE00000
3FF000003FF00000
3FE000001FF00000
7FE000001FF80000
7FC000000FF80000
7FC000000FF80000
7FC000000FF80000
7F83FFFF07F80000
FF87FFFF87FC0000
FF8FFFFF87FC0000
FF8FFFFF87FC0000
7F87FFFF87FC0000
7F83FFFF07F80000
7FC000000FF80000
7FC000000FF80000
7FC000000FF80000
7FE000001FF80000
3FE000001FF00000
3FF000003FF00000
1FF800007FF00000
1FFC0000FFE00000
0FFE0001FFE00000
0FFF8007FFF00000
07FFE01FFFF80000
03FFFFFFFFFC0000
01FFFFFFFFFE0000
00FFFFFFFFFF0000
007FFFFFFFFF8000
003FFFFFFFFFC000
001FFFFFFFFFE000
0007FFFFFFFFF000
0000FFFC3FFFF800
000007C01FFFFC00
000000000FFFFE00
0000000007FFFF00
0000000003FFFF80
0000000001FFFFC0
0000000000FFFFC0
00000000007FFFC0
00000000003FFFC0
00000000001FFFC0
00000000000FFFC0
000000000007FF80
000000000003FF80
000000000001FF00
000000000000FC00
ENDCHAR
STARTCHAR 0029
ENCODING 41
SWIDTH 987 0
DWIDTH 59 0
BBX 57 44 1 -3
BITMAP
1FFFFFFFFFFFFC00
7FFFFFFFFFFFFF00
FFFFFFFFFFFFFF80
FFFFFFFFFFFFFF80
FC00000000003F80
FE00000000007F80
FF0000000000FF80
FF8000000001FB80
EFC000000003F380
E7E000000007E380
E3F00000000FC380
E1F80000001F8380
E0FC0000003F0380
E07E0000007E0380
E03F000000FC0380
E01F800001F80380
E00FC00003F00380
E007E00007E00380
E003F0000FC00380
E001F8001F800380
E000FC003F000380
E0007E007E000380
E0003F00FE000380
E0007F81FF000380
E000FFC3FF800380
E001F7FFF7C00380
E003E3FFE3E00380
E007C1FFC1F00380
E00F80FF00F80380
E01F0018007C0380
E03E0000003E0380
E07C0000001F0380
E0F80000000F8380
E1F000000007C380
E3E000000003E380
E7C000000001F380
EF8000000000FB80
FF00000000007F80
FE00000000003F80
FC00000000001F80
FFFFFFFFFFFFFF80
FFFFFFFFFFFFFF80
FFFFFFFFFFFFFF80
3FFFFFFFFFFFFE00
ENDCHAR
STARTCHAR 002A
ENCODING 42
SWIDTH 987 0
DWIDTH 59 0
BBX 51 62 4 -12
BITMAP
000001E0000000
000007F8000000
000007F8000000
000007F8000000
000007F8000000
000007F8000000
000007F8000000
000007F8000000
000007F8000000
000007F8000000
000007F8000000
000007F8000000
000007F8000000
000007F8000000
000007F8000000
000007F8000000
003E07F81F0000
007F87F87F0000
007FE7F9FF0000
007FFFFFFF0000
003FFFFFFF0000
001FFFFFFE0000
000FFFFFFC0000
0007FFFFF80000
0003FFFFF00000
3FFDFFFFEFFF00
3FFEFFFFDFFF00
1FFF7FFFBFFE00
CFFFBFFF7FFCC0
E7FFDFFEFFF9E0
F3FFEFFDFFF3E0
F9FFF7FBFFE7E0
FCFFFBF7FFCFE0
FE7FFDCFFF9FE0
FF3FFE3FFF3FE0
FF9FFFFFFE7FE0
FFCFFFFFFCFFE0
FFE7FFFFF9FFE0
FFF3FFFFF3FFE0
FFF9FFFFE7FFE0
FFFCFFFFCFFFE0
FFFE7FFF9FFFE0
FFFF3FFF3FFFE0
FFFF9FFE3FFFE0
FFFF0FFC3FFFE0
FFFE67F8DFFFE0
FFFCF3F1EFFFE0
FFF9F8E3F7FFE0
FFF3FC0FFBFFE0
FFE7FFFFFDFFE0
FFCFFFFFFEFFE0
FF9FFFFFFF7FE0
FF3FFFFFFFBFE0
FF7FFFFFFFDFE0
FEFFFFFFFFEFE0
FDFFFFFFFFF7E0
FBFFFFFFFFFBE0
F7FFFFFFFFFDE0
EFFFFFFFFFFEE0
1FFFFFFFFFFF00
3FFFFFFFFFFF00
1FFFFFFFFFFF00
ENDCHAR
STARTCHAR 002B
ENCODING 43
SWIDTH 987 0
DWIDTH 59 0
BBX 57 58 1 -10
BITMAP
FFFFFFFFFFFFFF80
FFFFFFFFFFFFFF80
FFFFFFFFFFFFFF80
FFFFFFFFFFFFFF80
FFFFFFFFFFFFFF80
FFFFFFFFFFFFFF80
FFFFFFFFFFFFFF80
FFFFFFFFFFFFFF80
FC001FFFFC001F80
FC003FFFFE001F80
FC007FFFFF001F80
FC00FFFFFF801F80
FC00FFFFFF003F80
FC007FFFFE003F80
FC003FFFFC003F80
FC001FFFF8003F80
FC000FFFF0003F80
FC200FFFF8023F80
FC701FFFFC073F80
FEF83FFFFE0FBF80
FFFC7FFFFF1FFF80
FFFEFFFFFFBFFF80
FFFFFFFFFFFFFF80
FFFFFFFFFFFFFF80
FFFFFFFFFFFFFF80
FFFFFFFFFFFFFF80
FFFFFFFFFFFFFF80
FFFFFFFFFFFFFF80
FFFFFFFFFFFFFF80
FFFFFFFFFFFFFF80
FFFFFFFFFFFFFF80
FFFFFFFFFFFFFF80
FFFFFFFFFFFFFF80
FFFFFFFFFFFFFF80
FFFFFFFFFFFFFF80
FFFFFFFFFFFFFF80
FFFEFFFFFF3FFF80
FFFC7FFFFE1FBF80
FEF83FFFFC0F3F80
FC701FFFF8063F80
FC200FFFF0023F80
FC000FFFF8003F80
FC001FFFFC003F80
FC003FFFFE003F80
FC007FFFFF003F80
FC00FFFFFF803F80
FC00FFFFFF001F80
FC007FFFFE001F80
FC003FFFFC001F80
FC001FFFF8001F80
FFFFFFFFFFFFFF80
FFFFFFFFFFFFFF80
FFFFFFFFFFFFFF80
FFFFFFFFFFFFFF80
FFFFFFFFFFFFFF80
FFFFFFFFFFFFFF80
FFFFFFFFFFFFFF80
FFFFFFFFFFFFFF80
ENDCHAR
STARTCHAR 002C
ENCODING 44
SWIDTH 987 0
DWIDTH 59 0
BBX 58 58 0 -10
BITMAP
0000000000038000
0000000000FFC000
000000003FFFE000
00000000FFFFF000
00000001FFFFF800
00000003FFFFFC00
00000007FFFFFE00
0000000FFFFFFF00
0000001FFFFDFF80
0000003FFFF8FFC0
0000007FFFF07FC0
000000FFFFE03FC0
000001FFFFE03FC0
000003FFFFF07FC0
000007FFFFF8FF80
00000FFFFFFDFF80
00001FFFFFFFFF80
00003FFFFFFFFF80
00007FFFFFFFFF80
0000FFFFFFFFFF80
0001FFFFFFFFFF00
0003FFFFFFFFFF00
0007FFFFFFFFFF00
000FFFFFFFFFFF00
001FFFFFFFFFFF00
003F9FFFFFFFFE00
007F0FFFFFFFFC00
00FF87FFFFFFF800
01FFC3FFFFFFF000
03FBE1FFFFFFE000
07F1F0FFFFFFC000
0FF0F87FFFFF8000
1FF87C3FFFFF0000
3FFC3E1FFFFE0000
7FFE1F0FFFFC0000
FFFF0F87FFF80000
3FFF87C3FFF00000
1FFFC3E1FFE00000
0FFFE1F0FFC00000
07FFF0F87F800000
03FFF87C7F000000
01FFFC3EFE000000
00FFFE1FFC000000
007FFF0FF8000000
003FFF87F0000000
001FFFCFE0000000
000FFFFFC0000000
0007FFFF80000000
0003FFFF00000000
0001FFFE00000000
0000FFFC00000000
00007FF800000000
00003FF000000000
00001FE000000000
00000FC000000000
0000078000000000
0000030000000000
0000020000000000
ENDCHAR
STARTCHAR 002D
ENCODING 45
SWIDTH 987 0
DWIDTH 59 0
BBX 58 58 0 -10
BITMAP
000000FFC0000000
00000FFFFC000000
00003FFFFF800000
0000FFFFFFE00000
0003FE001FF80000
000FF00003FC0000
001FC000007E0000
003F0000003F8000
007E0000000FC000
00F800000007E000
01F800000003F000
03FC00000301F000
07DE00000700F800
078F00000F007C00
0F8780001F003C00
0F03C0003F001E00
1E01E0003F001E00
1E00F0007F000F00
3C007800FF000F00
3C003C01FF000780
3C000203FF000780
78000007FF000780
78003FFFFF000380
78003FFFFF0003C0
70003FFFFF0003C0
70003FFFFF0003C0
70003FFFFF0003C0
F0003FFFFF0003C0
F0003FFFFF0003C0
F0003FFFFF0003C0
F0003FFFFF0003C0
70003FFFFF0003C0
70003FFFFF0003C0
78003FFFFF0003C0
78003FFFFF0003C0
78003FFFFF000780
78000007FF000780
3C000003FF000780
3C000001FF000F00
3C000000FF000F00
1E0000007F200F00
1F0000003F301E00
0F0000001F383E00
0F8000000F3C3C00
07C00000071E7C00
03C00000070FF800
03E000000207F000
01F000000003E000
00FC00000007C000
007E0000000F8000
003F0000003F0000
001FC00000FE0000
0007F80003FC0000
0003FF003FF00000
0000FFFFFFE00000
00003FFFFF000000
000007FFFC000000
0000003F80000000
ENDCHAR
STARTCHAR 002E
ENCODING 46
SWIDTH 987 0
DWIDTH 59 0
BBX 49 62 5 -12
BITMAP
0FFFFFFFFFFC00
1FFFFFFFFFFE00
1FFFFFFFFFFE00
1C000000000E00
1C000000000E00
1C000000000E00
1C000000000E00
1C000000000E00
1C000000000E00
1C000000000E00
1C000000000E00
1C000000000E00
1C000000000E00
1C000000000E00
1C000000000E00
1C000000000E00
1C000000000E00
1C000000000E00
1C000000000E00
1C000000000E00
1C000000000E00
1C000000000E00
1C000000000E00
1C000000000E00
1C000000000E00
1C000000000E00
1C000000000E00
1C000000000E00
1C000000000E00
1E000000001E00
1FFFFFFFFFFE00
0FFFFFFFFFFC00
00000000000000
00000000000000
07FFFFFFFFF800
1FFFFFFFFFFE00
1FFFFFFFFFFE00
1FFFFFFFFFFE00
1FFFFFFE007E00
1FFFFFFE007E00
1FFFFFFE007E00
1FFFFFFFFFFE00
1FFFFFFFFFFE00
1FFFFFFFFFFE00
1FFFFFFFFFFE00
1FFFFFFFFFFE00
0FFFFFFFFFFC00
000000E0000000
000000E0000000
000000E0000000
000000E0000000
000000E0000000
000000E0000000
000000E0000000
0000FFFFC00000
0001FFFFC00000
0001FFFFC00000
FFFFFFFFFFFF80
FFFFFFFFFFFF80
FFFFFFFFFFFF80
0001FFFFC00000
0000FFFFC00000
ENDCHAR
STARTCHAR 002F
ENCODING 47
SWIDTH 987 0
DWIDTH 59 0
BBX 58 60 0 -11
BITMAP
0000001F00000000
018000FFC0007000
03C001FFF0007000
03C007FFF800F000
01E007FFFC00F000
01E00FFFFE01E000
00F01FFFFE01E000
00F01FFFFF03E000
20F81FFFFF03C080
70781FFFFF03C1C0
70783FFFFF07C3C0
787C3FFFFF0783C0
787C3FFFFF078780
7C3C3FFFFF0F8780
3C3C3FFFFF0F8780
3C3E3FFFFF0F8F80
3C3E3FFFFF0F0F80
3E3E3FFFFF0F0F00
3E3E3FFFFF1F0F00
3E3E3FFFFF1F0F00
1E1E3FFFFF1F0F00
1E1E3FFFFF1F1F00
1E1E3FFFFF1F1F00
1E1E3FFFFF1F1F00
1E1E3FFFFF1F1F00
1E1E3FFFFF1F1F00
1E1E3FFFFF1F1F00
1E1E3FFFFF1F1F00
1E1E3FFFFF1F0F00
3E3E3FFFFF1F0F00
3E3E3FFFFF1F0F00
3E3E3FFFFF0F0F00
3C3E3FFFFF0F0F00
3C3E3FFFFF0F8F80
3C3C3FFFFF0F8780
3C3C3FFFFF0F8780
787C1FFFFF078780
787C1FFFFF0783C0
78781FFFFF07C3C0
F0781FFFFE03C3C0
F0F80FFFFE03C1C0
60F007FFFC03E080
00F007FFF801E000
01E001FFF001E000
01E000FFE000F000
01C000FFE000F000
03C000FFE0007000
038000FFE0007000
000000FFE0000000
000000FFE0000000
000000FFE0000000
000000FFE0000000
000000FFE0000000
000000FFE0000000
000000FFE0000000
000000FFE0000000
000000FFE0000000
000000FFC0000000
0000007FC0000000
0000003F00000000
ENDCHAR
STARTCHAR 0030
ENCODING 48
SWIDTH 987 0
DWIDTH 59 0
BBX 58 58 0 -10
BITMAP
000000FFC0000000
00000FFFFC000000
00003FFFFF800000
0000FFFFFFE00000
0003FFFFFFF80000
000FFFFFFFFC0000
001FFFFFFFFE0000
003FFFFFFFFF8000
007FFFFFFFFFC000
00FFFFFFFFFFE000
01FF9FFFFF3FE000
03FF1FFFFE1FF000
03FC0FFFFE0FF800
07F80FFFFC07FC00
0FF007FFFC03FC00
0FF003FFF801FE00
1FE003FFF000FE00
1FC001FFF000FF00
3FC001FFE0007F00
3F8000FFE0007F80
3F8000FFC0003F80
7F00007FC0003F80
7F00007FC0003F80
7F0001FFE0001FC0
7F0001FFF0001FC0
7E0003E0F0001FC0
7E0003C078001FC0
FE00038078001FC0
FE00078078001FC0
FFFFFF807FFFFFC0
FFFFFF807FFFFFC0
7FFFFFC07FFFFFC0
7FFFFFE0FFFFFFC0
7FFFFFFFFFFFFFC0
7FFFFFFFFFFFFFC0
7FFFFFFFFFFFFF80
7FFFFF9E3FFFFF80
3FFFFF003FFFFF80
3FFFFF001FFFFF80
3FFFFE001FFFFF00
1FFFFE000FFFFF00
1FFFFC000FFFFE00
0FFFF80007FFFE00
0FFFF80003FFFC00
07FFF00003FFFC00
03FFF00001FFF800
03FFE00001FFF000
01FFC00000FFE000
00FFE00000FFE000
007FF80007FFC000
003FFF003FFF8000
001FFFFFFFFE0000
000FFFFFFFFC0000
0003FFFFFFF80000
0000FFFFFFE00000
00003FFFFF800000
00000FFFFC000000
000000FFC0000000
ENDCHAR
STARTCHAR 0031
ENCODING 49
SWIDTH 987 0
DWIDTH 59 0
BBX 56 62 1 -12
BITMAP
000001FF800000
000003FFC00000
000003FFE00000
000003FFE00000
000003FFE00000
000003FFE00000
000003FFE00000
000023FFE20000
0000C3FFE38000
0003C3FFE3E000
000FC3FFE3F000
001FC3FFE3FC00
003FC3FFE3FE00
007FC3FFE3FF00
00FFC3FFE3FF80
01FFC3FFE3FFC0
03FFC3FFE3FFE0
07FF83FFE0FFE0
07FF03FFE07FF0
0FFC03FFE03FF8
1FFC03FFE01FF8
1FF803FFE00FFC
3FF003FFE00FFC
3FE003FFE007FC
3FE003FFE003FE
7FC003FFE003FE
7FC003FFE001FE
7F8003FFE001FF
7F8003FFE001FF
FF8003FFE001FF
FF8003FFE000FF
FF8003FFE000FF
FF8003FFE000FF
FF8003FFC000FF
FF8001FFC000FF
FF8000000000FF
FF8000000000FF
FF8000000000FF
7F8000000001FF
7F8000000001FF
7FC000000001FE
7FC000000003FE
3FE000000003FE
3FE000000007FE
3FF000000007FC
1FF00000000FFC
1FF80000001FF8
0FFC0000003FF8
0FFE0000007FF0
07FF800000FFE0
03FFC00003FFE0
01FFF00007FFC0
01FFFC003FFF80
00FFFFFFFFFF00
007FFFFFFFFE00
001FFFFFFFFC00
000FFFFFFFF800
0007FFFFFFE000
0001FFFFFF8000
00007FFFFE0000
00000FFFF80000
0000007F000000
ENDCHAR
STARTCHAR 0032
ENCODING 50
SWIDTH 987 0
DWIDTH 59 0
BBX 55 62 2 -12
BITMAP
00000078000000
000000FE000000
000001FF000000
000003FF000000
000003FF000000
000003FF000000
000003FF000000
000003FF000000
000003FF000000
000003FF000000
000001FF000000
000001FE000000
000001FE000000
1E0001FE0001F0
7F8000FE0007F8
7FE000FC000FFC
FFF000FC001FFC
FFF800FC003FFE
FFFC007C00FFFC
FFFE007800FFFC
7FFF007801FFFC
7FFF807803FFF8
1FFFC07807FFF0
0FFFE0380FFFC0
03FFF0381FFF00
007FF8787FF800
000FFEFDFF8000
00007FFFF80000
00000FFFE00000
000007FF800000
000003FF800000
000003FF800000
000007FF800000
00000FFFE00000
0000FFFFFC0000
0007FFFFFFC000
003FF8787FFC00
01FFF0781FFF80
07FFE0780FFFE0
1FFFC07807FFF0
7FFF807803FFF8
7FFF007C01FFFC
FFFE007C00FFFE
FFFC00FC007FFE
FFF000FC003FFE
FFE000FE001FFE
7FC000FE000FFC
7F8001FE0003F8
1C0001FE0000F0
000001FE000000
000001FF000000
000001FF000000
000003FF000000
000003FF000000
000003FF000000
000003FF000000
000003FF000000
000003FF000000
000001FF000000
000001FE000000
000000FE000000
00000038000000
ENDCHAR
STARTCHAR 0033
ENCODING 51
SWIDTH 987 0
DWIDTH 59 0
BBX 57 54 1 -8
BITMAP
0000000800000000
0000001800000000
0000001C00000000
0000003C00000000
0000003E00000000
0000007E00000000
0000007F00000000
000000FF00000000
000000FF80000000
000001FF80000000
000001FFC0000000
000003FFC0000000
000003FFE0000000
000007FFE0000000
000007FFF0000000
00000FFFF0000000
00000FFFF8000000
00001FFFF8000000
0007FFFFFFF00000
03FFFFFFFFFFE000
FFFFFFFFFFFFFF80
7FFFFFFFFFFFFF00
3FFFFFFFFFFFFE00
1FFFFFFFFFFFFC00
0FFFFFFFFFFFF800
07FFFFFFFFFFF000
03FFFFFFFFFFE000
01FFFFFFFFFFC000
00FFFFFFFFFF8000
007FFFFFFFFF0000
003FFFFFFFFE0000
001FFFFFFFFC0000
000FFFFFFFF80000
0007FFFFFFF00000
0003FFFFFFE00000
0003FFFFFFE00000
0003FFFFFFE00000
0007FFFFFFE00000
0007FFFFFFE00000
0007FFFFFFF00000
0007FFFFFFF00000
0007FFFFFFF00000
000FFFFFFFF00000
000FFFFFFFF00000
000FFFFFFFF00000
000FFFE7FFF80000
000FFF81FFF80000
000FFE007FF80000
001FF8001FF80000
001FF00007F80000
001FC00001F80000
001F0000007C0000
001C0000001C0000
0010000000040000
ENDCHAR
STARTCHAR 0034
ENCODING 52
SWIDTH 987 0
DWIDTH 59 0
BBX 58 42 0 -2
BITMAP
1FFFFFFFFFFFFE00
1FFFFFFFFFFFFE00
0FFFFFFFFFFFFE00
07FFFFFFFFFFFC00
63FFFFFFFFFFF9C0
F1FFFFFFFFFFF3C0
F8FFFFFFFFFFE7C0
FC7FFFFFFFFFCFC0
FE3FFFFFFFFF9FC0
FF1FFFFFFFFF3FC0
FF8FFFFFFFFE7FC0
FFC7FFFFFFFCFFC0
FFF3FFFFFFF9FFC0
FFF9FFFFFFF3FFC0
FFFCFFFFFFE7FFC0
FFFE7FFFFFCFFFC0
FFFF3FFFFF9FFFC0
FFFF9FFFFF3FFFC0
FFFFCFFFFE7FFFC0
FFFFE7FFFCFFFFC0
FFFFE3FFF9FFFFC0
FFFFF1FFF1FFFFC0
FFFFE0FFE0FFFFC0
FFFFCC7FCE7FFFC0
FFFF9E3F9F3FFFC0
FFFF3F1E3F9FFFC0
FFFE7F807FCFFFC0
FFFCFFF3FFE7FFC0
FFF9FFFFFFF3FFC0
FFF3FFFFFFF9FFC0
FFE7FFFFFFFDFFC0
FFCFFFFFFFFEFFC0
FF9FFFFFFFFF7FC0
FF3FFFFFFFFFBFC0
FE7FFFFFFFFFDFC0
FCFFFFFFFFFFEFC0
F9FFFFFFFFFFF7C0
F3FFFFFFFFFFFBC0
67FFFFFFFFFFFDC0
0FFFFFFFFFFFFE00
1FFFFFFFFFFFFE00
0FFFFFFFFFFFFE00
ENDCHAR
STARTCHAR 0035
ENCODING 53
SWIDTH 987 0
DWIDTH 59 0
BBX 58 45 0 -5
BITMAP
0000000C00000000
0000003F03FC0000
0000007F83FC0000
000001F1E3FC0000
000003C0F3FC0000
0000078C3FFC0000
00001E1E1FFC0000
00003C3F87FC0000
0000F0FFC3FC0000
0001E1FFF1FC0000
000787FFF87C0000
000F0FFFFC3C0000
003E3FFFFF0F0000
00787FFFFF878000
01F1FFFFFFE1E000
03C3FFFFFFF0F000
0F87FFFFFFFC3C00
1E1FFFFFFFFE1E00
3C3FFFFFFFFF8780
F07FFFFFFFFF83C0
607FFFFFFFFF81C0
007FFFFFFFFF8000
007FFFFFFFFF8000
007FFFFFFFFF8000
007FFFFFFFFF8000
007FFF003FFF8000
007FFF003FFF8000
007FFF003FFF8000
007FFF003FFF8000
007FFF003FFF8000
007FFF003FFF8000
007FFF003FFF8000
007FFF003FFF8000
007FFF003FFF8000
007FFF003FFF8000
007FFF003FFF8000
007FFF003FFF8000
007FFF003FFF8000
007FFF003FFF8000
007FFF003FFF8000
007FFF003FFF8000
007FFF003FFF8000
007FFF003FFF8000
003FFF003FFF8000
003FFF003FFF0000
ENDCHAR
STARTCHAR 0036
ENCODING 54
SWIDTH 987 0
DWIDTH 59 0
BBX 57 61 1 -12
BITMAP
007C000000FC0000
00FE000001FE0000
01FF000003FF0000
01FF000003FF0000
03FF000003FF0000
03FF000003FF0000
01FF000003FF0000
01FF000001FE0000
00FE000000FC0000
0038000000200000
0000000000000000
1FFFE0000FFFC000
3FFFF8001FFFE000
7FFFFC003FFFF000
FFFFFE007FFFF000
FFFFFE007FFFF800
FFFFFE007FFFF800
FFFFFE00FFFFF800
FFFFFE00FBFF7C00
F7FFDE00F7FFBC00
F7FFDE00F7FFBC00
F7FFDE01F7FFBE00
F7FFDE01EFFFBE00
F7FFDE01EFFFDE00
F7FFDE03EFFFDE00
F7FFDE03EFFFDF00
F7FFDE03DFFFEF00
F7FFDE03DFFFEF00
F7FFDE07DFFFEF80
F7FFDE07BFFFEF80
F7FFDE07BFFFF780
F7FFDE07BFFFF780
F7FFDE023FFFF200
F7FFDE007FFFF800
E7FFCC007FFFF800
07EFC0007FFFF800
07EFC000FFFFF800
07EFC000FFFFFC00
07EFC000FFFFFC00
07EFC000FFFFFC00
07EFC001FFFFFE00
07EFC00007DF0000
07EFC00007DF0000
07EFC00007DF0000
07EFC00007DF0000
07EFC00007DF0000
07EFC00007DF0000
07EFC00007DF0000
07EFC00007DF0000
07EFC00007DF0000
07EFC00007DF0000
07EFC00007DF0000
07EFC00007DF0000
07EFC00007DF0000
07EFC00007DF0000
07EFC00007DF0000
07EFC00007DF0000
07EFC00007DF0000
07EFC00007DF0000
03C7800003CF0000
0000000001040000
ENDCHAR
STARTCHAR 0037
ENCODING 55
SWIDTH 987 0
DWIDTH 59 0
BBX 58 44 0 -3
BITMAP
00007FF000000000
0003FFFE00000000
000FFFFF80000000
003FF07FE0000000
007FE01FF0000000
00FFC00FF8000000
01FF800FFC000000
03FF8007FE000000
07FF0007FF000000
0FFF0007FF800000
0FFF0007FFC00000
1FFF8007FFC00000
1FFF800FFFE00000
3FFFC01FFFE00000
3FFFE03FFFE00000
7F07F8FF87F00000
7E03FFFE01F00000
7C01FFFC00F00000
7800FFF800F00000
7000FFF800780000
70007FF000780000
F0007FF000780000
F0007FF000780000
70007FF800780000
7800FFF800F80000
7801FFFC00F00000
7C03FFFE01F00000
7F07F8FF07F00000
7FFFE03FFFF00000
3FFFC01FFFE00000
3FFF800FFFE00000
1FFF8007FFE00000
1FFF0007FFC00000
0FFF0007FF800000
0FFF0007FF800000
07FF0007FF800000
03FF800FFF8001C0
01FF800FFF800FC0
00FFC01FFBC03FC0
007FF07FF3FFFF80
001FFFFFE1FFFE00
000FFFFF80FFF800
0003FFFE007FC000
00003FE000000000
ENDCHAR
STARTCHAR 0038
ENCODING 56
SWIDTH 987 0
DWIDTH 59 0
BBX 45 62 7 -12
BITMAP
3FFFFFFFFFE0
7FFFFFFFFFF0
FFFFFFFFFFF8
FFFFFFFFFFF8
FFFFFFFFFFF8
F800000000F8
F000000000F8
F00000000078
F00000000078
F00000000078
F00000000078
F00000000078
F00000000078
F00000000078
F00000000078
F000000000F8
F800000000F8
FFFFFFFFFFF8
FFFFFFFFFFF8
FFFFFFFFFFF8
FFFFFFFFFFF8
FFFFFFFFFFF8
F807C03F00F8
F807C03F00F8
F807C03F00F8
F807C03F00F8
F807C03F00F8
F807C03F00F8
F807C03F00F8
FFFFFFFFFFF8
FFFFFFFFFFF8
FFFFFFFFFFF8
FFFFFFFFFFF8
FFFFFFFFFFF8
FFFFFFFFFFF8
F807C03F00F8
F807C03F00F8
F807C03F00F8
F807C03F00F8
F807C03F00F8
F807C03F00F8
F807C03F00F8
FC0FE03F81F8
FFFFFFFFFFF8
FFFFFFFFFFF8
FFFFFFFFFFF8
FFFFFFFFFFF8
FFFFFFFFFFF8
F807E03F00F8
F807C03F00F8
F807C03F00F8
F807C03F00F8
F807C03F00F8
F807C03F00F8
F807C03F00F8
F80FE03F00F8
FFFFFFFFFFF8
FFFFFFFFFFF8
FFFFFFFFFFF8
FFFFFFFFFFF8
7FFFFFFFFFF0
3FFFFFFFFFE0
ENDCHAR
STARTCHAR 0039
ENCODING 57
SWIDTH 987 0
DWIDTH 59 0
BBX 58 56 0 -9
BITMAP
3000000000000000
7800000000000000
FC00000000000000
7E00000000000000
3F00000000000000
1F80000000000000
0FC0000000000000
07E0000000000000
03E07FFFFFFFFFC0
01F07FFFFFFFFF80
01F07FFFFFFFFF80
00F87FFFFFFFFF00
00F83FFFFFFFFF00
00783FFFFFFFFF00
007C3FFFFFFFFE00
003C3FFFFFFFFE00
003C3FFFFFFFFC00
003E3FFFFFFFFC00
001E1FFFFFFFF800
001E1FFFFFFFF800
001F1FFFFFFFF000
001F1FFFFFFFF000
000F1FFFFFFFE000
000F1FFFFFFFE000
000F0FFFFFFFC000
000F8FFFFFFFC000
000F8FFFFFFF8000
00078FFFFFFF8000
00078FFFFFFF8000
0007800000000000
0007800000000000
0007C00000000000
0007C00000000000
0007C00000000000
0003C00000000000
0003C00000000000
0003FFFFFFFFF800
0003FFFFFFFFFC00
0003FFFFFFFFFC00
0003FFFFFFFFFC00
0000000000000000
0000000000000000
0000000000000000
0000000000000000
0001F800000FE000
0003FC00001FF000
0007FE00003FF800
000FFF00003FF800
000FFF00003FF800
000FFF00003FFC00
000FFF00003FF800
000FFF00003FF800
0007FE00003FF800
0007FE00001FF000
0003F800000FE000
0000E00000038000
ENDCHAR
STARTCHAR 003A
ENCODING 58
SWIDTH 987 0
DWIDTH 59 0
BBX 58 58 0 -10
BITMAP
0000000003F00000
000000001FFF0000
000000007FFFC000
00000001FFFFE000
00000003FFFFF000
00000007FFFFF800
0000000FFFFFFC00
0000001FFFF8FE00
0000001FFFE03F00
0000003FFFC03F00
0000003FFFC01F80
0000007FFFC01F80
0000007FFFC01F80
0000007FFFC01FC0
0000007FFFE03FC0
0000007FFFF07FC0
0000007FFFFFFFC0
0000007FFFFFFFC0
0000007FFFFFFFC0
0000007FFFFFFFC0
0000007FFFFFFFC0
0000007FFFFFFF80
0000007FFFFFFF80
0000003FFFFFFF80
0000033FFFFFFF00
0000071FFFFFFF00
00000F0FFFFFFE00
00001F8FFFFFFC00
00003FC7FFFFF800
00007FC3FFFFF000
0000FFE1FFFFE000
0001FFF07FFF8000
0003FFFC1FFE0000
0007FFFE01F00000
000FFFFF80000000
001FFFFFE0000000
003FFFF800000000
007FFFF800000000
00FFFFF800000000
01FFFFF800000000
03FFFFF800000000
07FFFF0000000000
0FFFFF0000000000
1FFFFF0000000000
3FFF800000000000
3FFF800000000000
7FFF800000000000
7FFF800000000000
FFFF800000000000
FFFF800000000000
FFFF800000000000
7FFF800000000000
7FF8000000000000
7FF8000000000000
3FF8000000000000
1FF8000000000000
0FF8000000000000
03E0000000000000
ENDCHAR
STARTCHAR 003B
ENCODING 59
SWIDTH 987 0
DWIDTH 59 0
BBX 58 58 0 -10
BITMAP
0000001F00000000
0000001F00000000
0000001F00000000
0000001F00000000
0000001F00000000
0000001F00000000
0000001F00000000
0000001F00000000
0000001F00000000
0000001F00000000
0000001F00000000
0000001F00000000
0000001F00000000
0000001F00000000
0000001F00000000
0000001F00000000
0000001F00000000
0000001F00000000
0000001F00000000
0000001F00000000
0000001F00000000
0000001F00000000
0000001F00000000
0000001F00000000
0000001F00000000
0000001F00000000
0000001F00000000
FFFFFFFFFFFFFFC0
FFFFFFFFFFFFFFC0
FFFFFFFFFFFFFFC0
FFFFFFFFFFFFFFC0
0000001F00000000
0000001F00000000
0000001F00000000
0000001F00000000
0000001F00000000
0000001F00000000
0000001F00000000
0000001F00000000
0000001F00000000
0000001F00000000
0000001F00000000
0000001F00000000
0000001F00000000
0000001F00000000
0000001F00000000
0000001F00000000
0000001F00000000
0000001F00000000
0000001F00000000
0000001F00000000
0000001F00000000
0000001F00000000
0000001F00000000
0000001F00000000
0000001F00000000
0000001F00000000
0000001F00000000
ENDCHAR
STARTCHAR 003C
ENCODING 60
SWIDTH 987 0
DWIDTH 59 0
BBX 58 47 0 -4
BITMAP
0000000C00000000
0000000E00000000
0000001F00000000
0000001F00000000
0000003F80000000
0000007F80000000
0000007FC0000000
000000FFE0000000
000000FFE0000000
000001FBF0000000
000003F3F0000000
000003F1F8000000
000007E1FC000000
000007E0FC000000
00000FC07E000000
00001F807E000000
00001F803F000000
00003F003F000000
00003F001F800000
00007E000FC00000
0000FC000FC00000
0000FC0007E00000
0001F80007E00000
0001F80003F00000
0003F00001F80000
0007E00001F80000
0007E00000FC0000
000FC00000FC0000
000FC000007E0000
001F8000003F0000
003F0000003F0000
003F0000001F8000
007E0000001F8000
007E0000000FC000
00FC00000007E000
01F800000007E000
01F800000003F000
03F000000003F000
03F000000001F800
07E000000000FC00
0FE000000000FC00
0FC0000000007E00
1F80000000007E00
1F80000000003F00
3F00000000001F00
7F00000000001F80
FE00000000000FC0
ENDCHAR
STARTCHAR 003D
ENCODING 61
SWIDTH 987 0
DWIDTH 59 0
BBX 58 58 0 -10
BITMAP
000000FFC0000000
00000FFFFC000000
00003FFBFF800000
0000FC000FE00000
0003E00001F80000
000F8000007C0000
001E0000001F0000
003C000000078000
007000000003C000
00E000000001E000
01C000000000F000
0387FFFF80007000
0707FFFFF0003800
0700FE03FC001C00
0E007E01FE001C00
0E007E00FE000E00
1C007E007F000E00
18007E003F800700
38007E003F800700
38007E003F800300
30007E001F800380
70007E003F800380
70007E003F800180
60007E003F0001C0
60007E007F0001C0
60007E00FE0001C0
E0007E01FC0001C0
E0007E07F80001C0
E0007FFFE00000C0
E0007FFF000000C0
E0007E3F800001C0
60007E1FC00001C0
60007E0FC00001C0
60007E07E00001C0
70007E07F00001C0
70007E03F0000180
70007E01F8000380
30007E00FC000380
38007E00FE000300
38007E007E000700
1C007E003F000700
1C007E003F800E00
0E007E001F800E00
0E007E000FC01C00
0700FF0007F03C00
0387FFF007F83800
03C0000000007000
01E000000000E000
00F000000001C000
007800000003C000
003C0000000F0000
001F0000001E0000
0007C000007C0000
0003F00001F00000
0000FE001FC00000
00003FFFFF000000
000007FFFC000000
0000007F80000000
ENDCHAR
STARTCHAR 003E
ENCODING 62
SWIDTH 987 0
DWIDTH 59 0
BBX 58 58 0 -10
BITMAP
0000007FC0000000
00000FFFFC000000
00003FFFFF800000
0000FC000FE00000
0003E00001F80000
000F8000007C0000
001E0000001E0000
003C000000078000
007000000003C000
00E000000001E000
01C000078030F000
038001FFF8707000
078007E07FF03800
07001F800FF01C00
0E003E0003F01C00
0E007C0001F00E00
1C00F80000F00E00
1C01F00000700700
3803E00000700700
3807E00000300300
3007E00000300380
700FC00000100180
700FC00000000180
601FC000000001C0
601FC000000001C0
601F8000000001C0
E01F8000000001C0
E01F8000000000C0
E01F8000000000C0
E01F8000000000C0
E01F8000000000C0
E01FC000000001C0
601FC000000001C0
601FC000000001C0
601FC000000001C0
700FC00000000180
700FE00000000380
3007E00000000380
3807F00000100300
3803F00000380700
1C01F80000700700
1C00FC0000E00E00
0E007E0001C00E00
0E003F8007801C00
07001FF07E003C00
038007FFF8003800
03C000FFE0007000
01E000000000E000
00F000000001E000
007800000003C000
003C0000000F0000
001F0000001E0000
000FC000007C0000
0003F00001F00000
0000FE001FE00000
00003FFFFF000000
000007FFFC000000
0000007F80000000
ENDCHAR
STARTCHAR 003F
ENCODING 63
SWIDTH 987 0
DWIDTH 59 0
BBX 57 58 1 -10
BITMAP
000000FF00000000
00000FFFF8000000
00007FFFFF000000
0001FFFFFFC00000
0007FFFFFFE00000
000FFFFFFFF80000
003FFFFFFFFC0000
007FFC001FFE0000
00FFE00007FF0000
01FF800001FF8000
03FF0000007FC000
07FC0000003FE000
07F80000001FF000
0FF00000000FF800
1FE000000007F800
1FC000000003FC00
3FC000000001FC00
3F8000000000FE00
7F8000000000FE00
7F00000000007E00
7F00000000007F00
FE00000000007F00
FE00000000003F00
FE00000000003F80
FC00000000003F80
FC00000000003F80
FC00000000001F80
FC00000000001F80
FC00000000001F80
FC00000000001F80
FC00000000001F80
FC00000000003F80
FC00000000003F80
FC00000000003F80
FE00000000003F80
FE00000000003F00
FE00000000007F00
7F00000000007F00
7F00000000007E00
7F0000000000FE00
3F8000000000FE00
3FC000000001FC00
1FC000000003FC00
1FE000000007F800
0FF00000000FF800
07F80000001FF000
07FC0000003FE000
03FF0000007FC000
01FF800001FF8000
00FFE00007FF0000
007FFC001FFE0000
003FFFFFFFFC0000
000FFFFFFFF80000
0007FFFFFFF00000
0001FFFFFFC00000
00007FFFFF000000
00000FFFF8000000
000000FF00000000
ENDCHAR
STARTCHAR 0040
ENCODING 64
SWIDTH 987 0
DWIDTH 59 0
BBX 58 58 0 -10
BITMAP
0000000400000000
0000000C00000000
0000000C00000000
0000001E00000000
0000001E00000000
0000003F00000000
0000003F00000000
0000007F80000000
0000007F80000000
000000FFC0000000
000000FFC0000000
000001FFE0000000
000001FFE0000000
000003FFF0000000
000003FFF0000000
000007FFF8000000
000007FFF8000000
00000FFFFC000000
00000FFFFC000000
00001FFFFE000000
00001FFFFE000000
00003FFFFF000000
00003FFFFF000000
00007FFFFF800000
00007FFFFF800000
0000FFFFFFC00000
0000FFFFFFC00000
0001FFFFFFE00000
0001FFFFFFE00000
0003FFFFFFF00000
0003FFFFFFF00000
0007FFFFFFF80000
0007FFFFFFF80000
000FFFFFFFFC0000
000FFFFFFFFC0000
001FFFFFFFFE0000
001FFFFFFFFE0000
003FFFFFFFFF0000
003FFFFFFFFF0000
007FFFFFFFFF8000
007FFFFFFFFF8000
00FFFFFFFFFFC000
00FFFFFFFFFFC000
01FFFFFFFFFFE000
01FFFFFFFFFFE000
03FFFFFFFFFFF000
03FFFFFFFFFFF000
07FFFFFFFFFFF800
07FFFFFFFFFFF800
0FFFFFFFFFFFFC00
0FFFFFFFFFFFFC00
1FFFFFFFFFFFFE00
1FFFFFFFFFFFFE00
3FFFFFFFFFFFFF00
3FFFFFFFFFFFFF00
7FFFFFFFFFFFFF80
7FFFFFFFFFFFFF80
FFFFFFFFFFFFFFC0
ENDCHAR
STARTCHAR 0041
ENCODING 65
SWIDTH 987 0
DWIDTH 59 0
BBX 57 56 1 -9
BITMAP
8000080000000000
80000C0000000000
E0000E0000000000
F0000F8000000000
F8000FC000000000
FE000FE000000000
FF000FF800000000
FF800FFC00000000
FFE00FFE00000000
FFF00FFF80000000
FFF80FFFC0000000
FFFE0FFFE0000000
FFFF0FFFF8000000
FFFF8FFFFC000000
FFFFE7FFFE000000
FFFFF1FFFF800000
FFFFF8FFFFC00000
FFFFFE7FFFE00000
FFFFFF1FFFF80000
FFFFFF8FFFFC0000
FFFFFFE7FFFE0000
FFFFFFF1FFFF8000
FFFFFFF8FFFFC000
FFFFFFFE7FFFE000
FFFFFFFF1FFFF800
FFFFFFFF8FFFFC00
FFFFFFFFE7FFFE00
FFFFFFFFF1FFFF80
FFFFFFFFF3FFFF00
FFFFFFFFC7FFFE00
FFFFFFFF8FFFFC00
FFFFFFFF3FFFF000
FFFFFFFC7FFFE000
FFFFFFF8FFFFC000
FFFFFFF3FFFF0000
FFFFFFC7FFFE0000
FFFFFF8FFFFC0000
FFFFFF3FFFF00000
FFFFFC7FFFE00000
FFFFF8FFFFC00000
FFFFF3FFFF000000
FFFFC7FFFE000000
FFFF8FFFFC000000
FFFF0FFFF0000000
FFFC0FFFE0000000
FFF80FFFC0000000
FFF00FFF00000000
FFC00FFE00000000
FF800FFC00000000
FF000FF000000000
FC000FE000000000
F8000FC000000000
F0000F0000000000
C0000E0000000000
80000C0000000000
8000080000000000
ENDCHAR
STARTCHAR 0042
ENCODING 66
SWIDTH 987 0
DWIDTH 59 0
BBX 51 62 4 -12
BITMAP
8000000003FFC0
C000000003FFC0
F000000003FFC0
FC00000003FFC0
FE00000003FFC0
FF80000003FFC0
FFC0000003FFC0
FFF0000003FFC0
FFFC000003FFC0
FFFE000003FFC0
FFFF800003FFC0
FFFFE00003FFC0
FFFFF00003FFC0
FFFFFC0003FFC0
FFFFFF0003FFC0
FFFFFF8003FFC0
FFFFFFE003FFC0
FFFFFFF003FFC0
FFFFFFFC03FFC0
FFFFFFFF03FFC0
FFFFFFFF83FFC0
FFFFFFFFE3FFC0
FFFFFFFFFBFFC0
FFFFFFFFFFFFC0
FFFFFFFFFFFFC0
FFFFFFFFFFFFC0
FFFFFFFFFFFFC0
FFFFFFFFFFFFC0
FFFFFFFFFFFFC0
FFFFFFFFFFFFC0
FFFFFFFFFFFFE0
FFFFFFFFFFFFC0
FFFFFFFFFFFFC0
FFFFFFFFFFFFC0
FFFFFFFFFFFFC0
FFFFFFFFFFFFC0
FFFFFFFFFFFFC0
FFFFFFFFFFFFC0
FFFFFFFFFFFFC0
FFFFFFFFF3FFC0
FFFFFFFFE3FFC0
FFFFFFFF83FFC0
FFFFFFFF03FFC0
FFFFFFFC03FFC0
FFFFFFF003FFC0
FFFFFFE003FFC0
FFFFFF8003FFC0
FFFFFE0003FFC0
FFFFFC0003FFC0
FFFFF00003FFC0
FFFFC00003FFC0
FFFF800003FFC0
FFFE000003FFC0
FFFC000003FFC0
FFF0000003FFC0
FFC0000003FFC0
FF80000003FFC0
FE00000003FFC0
F800000003FFC0
F000000003FFC0
C000000003FFC0
8000000003FFC0
ENDCHAR
STARTCHAR 0043
ENCODING 67
SWIDTH 987 0
DWIDTH 59 0
BBX 44 62 7 -12
BITMAP
FFFFE03FFFF0
FFFFE03FFFF0
FFFFE03FFFF0
FFFFE03FFFF0
FFFFE03FFFF0
FFFFE03FFFF0
FFFFE03FFFF0
FFFFE03FFFF0
FFFFE03FFFF0
FFFFE03FFFF0
FFFFE03FFFF0
FFFFE03FFFF0
FFFFE03FFFF0
FFFFE03FFFF0
FFFFE03FFFF0
FFFFE03FFFF0
FFFFE03FFFF0
FFFFE03FFFF0
FFFFE03FFFF0
FFFFE03FFFF0
FFFFE03FFFF0
FFFFE03FFFF0
FFFFE03FFFF0
FFFFE03FFFF0
FFFFE03FFFF0
FFFFE03FFFF0
FFFFE03FFFF0
FFFFE03FFFF0
FFFFE03FFFF0
FFFFE03FFFF0
FFFFE03FFFF0
FFFFE03FFFF0
FFFFE03FFFF0
FFFFE03FFFF0
FFFFE03FFFF0
FFFFE03FFFF0
FFFFE03FFFF0
FFFFE03FFFF0
FFFFE03FFFF0
FFFFE03FFFF0
FFFFE03FFFF0
FFFFE03FFFF0
FFFFE03FFFF0
FFFFE03FFFF0
FFFFE03FFFF0
FFFFE03FFFF0
FFFFE03FFFF0
FFFFE03FFFF0
FFFFE03FFFF0
FFFFE03FFFF0
FFFFE03FFFF0
FFFFE03FFFF0
FFFFE03FFFF0
FFFFE03FFFF0
FFFFE03FFFF0
FFFFE03FFFF0
FFFFE03FFFF0
FFFFE03FFFF0
FFFFE03FFFF0
FFFFE03FFFF0
FFFFE03FFFF0
FFFFE03FFFF0
ENDCHAR
STARTCHAR 0044
ENCODING 68
SWIDTH 987 0
DWIDTH 59 0
BBX 50 62 4 -12
BITMAP
80000000000000
C0000000000000
F0000000000000
F8000000000000
FE000000000000
FF800000000000
FFC00000000000
FFF00000000000
FFF80000000000
FFFE0000000000
FFFF8000000000
FFFFC000000000
FFFFF000000000
FFFFFC00000000
FFFFFE00000000
FFFFFF80000000
FFFFFFE0000000
FFFFFFF0000000
FFFFFFFC000000
FFFFFFFF000000
FFFFFFFF800000
FFFFFFFFE00000
FFFFFFFFF00000
FFFFFFFFFC0000
FFFFFFFFFF0000
FFFFFFFFFF8000
FFFFFFFFFFE000
FFFFFFFFFFF800
FFFFFFFFFFFC00
FFFFFFFFFFFF00
FFFFFFFFFFFFC0
FFFFFFFFFFFFC0
FFFFFFFFFFFF00
FFFFFFFFFFFC00
FFFFFFFFFFF800
FFFFFFFFFFE000
FFFFFFFFFF8000
FFFFFFFFFF0000
FFFFFFFFFC0000
FFFFFFFFF00000
FFFFFFFFE00000
FFFFFFFF800000
FFFFFFFF000000
FFFFFFFC000000
FFFFFFF0000000
FFFFFFE0000000
FFFFFF80000000
FFFFFE00000000
FFFFFC00000000
FFFFF000000000
FFFFC000000000
FFFF8000000000
FFFE0000000000
FFFC0000000000
FFF00000000000
FFC00000000000
FF800000000000
FE000000000000
F8000000000000
F0000000000000
C0000000000000
80000000000000
ENDCHAR
STARTCHAR 0045
ENCODING 69
SWIDTH 987 0
DWIDTH 59 0
BBX 57 58 1 -10
BITMAP
000000FF80000000
00000FFFF8000000
00007FFFFF000000
0001FFFFFFC00000
0007FFFFFFE00000
000FFFFFFFF80000
003FFFFFFFFC0000
007FFFFFFFFE0000
00FFFFFFFFFF8000
01FFFFFFFFFF8000
03FFFFFFFFFFC000
07FFFFFFFFFFE000
07FFFFFFFFFFF000
0FFFFFFFFFFFF800
1FFFFFFFFFFFF800
1FFFFFFFFFFFFC00
3FFFFFC1FFFFFC00
3FFFFE003FFFFE00
7FFFF8000FFFFE00
7FFFF00007FFFE00
7FFFE00003FFFF00
FFFFC00001FFFF00
FFFF800001FFFF00
FFFF800000FFFF80
FFFF000000FFFF80
FFFF0000007FFF80
FFFF0000007FFF80
FFFF0000007FFF80
FFFF0000007FFF80
FFFF0000007FFF80
FFFF0000007FFF80
FFFF0000007FFF80
FFFF0000007FFF80
FFFF000000FFFF80
FFFF800000FFFF00
FFFF800001FFFF00
7FFFC00001FFFF00
7FFFE00003FFFF00
7FFFF00007FFFE00
3FFFF8001FFFFE00
3FFFFE003FFFFE00
3FFFFFE3FFFFFC00
1FFFFFFFFFFFFC00
1FFFFFFFFFFFF800
0FFFFFFFFFFFF000
07FFFFFFFFFFF000
03FFFFFFFFFFE000
03FFFFFFFFFFC000
01FFFFFFFFFF8000
00FFFFFFFFFF0000
007FFFFFFFFE0000
003FFFFFFFFC0000
000FFFFFFFF80000
0007FFFFFFE00000
0001FFFFFF800000
00007FFFFE000000
00000FFFF8000000
0000003E00000000
ENDCHAR
STARTCHAR 0046
ENCODING 70
SWIDTH 987 0
DWIDTH 59 0
BBX 57 57 1 -10
BITMAP
FFFFFFFFFFFFFF80
FFFFFFFFFFFFFF80
FFFFFFFFFFFFFF80
FFFFFFFFFFFFFF80
FFFFFFFFFFFFFF80
FFFFFFFFFFFFFF80
FFFFFFFFFFFFFF80
FFFFFFFFFFFFFF80
FFFFFFFFFFFFFF80
FFFFFFFFFFFFFF80
FFFFFFFFFFFFFF80
FFFFFFFFFFFFFF80
FFFFFFFFFFFFFF80
FFFFFFFFFFFFFF80
FFFFFFFFFFFFFF80
FFFFFFFFFFFFFF80
FFFFFFFFFFFFFF80
FFFFFFFFFFFFFF80
FFFFFFFFFFFFFF80
FFFFFFFFFFFFFF80
FFFFFFFFFFFFFF80
FFFFFFFFFFFFFF80
FFFFFFFFFFFFFF80
FFFFFFFFFFFFFF80
FFFFFFFFFFFFFF80
FFFFFFFFFFFFFF80
FFFFFFFFFFFFFF80
FFFFFFFFFFFFFF80
FFFFFFFFFFFFFF80
FFFFFFFFFFFFFF80
FFFFFFFFFFFFFF80
FFFFFFFFFFFFFF80
FFFFFFFFFFFFFF80
FFFFFFFFFFFFFF80
FFFFFFFFFFFFFF80
FFFFFFFFFFFFFF80
FFFFFFFFFFFFFF80
FFFFFFFFFFFFFF80
FFFFFFFFFFFFFF80
FFFFFFFFFFFFFF80
FFFFFFFFFFFFFF80
FFFFFFFFFFFFFF80
FFFFFFFFFFFFFF80
FFFFFFFFFFFFFF80
FFFFFFFFFFFFFF80
FFFFFFFFFFFFFF80
FFFFFFFFFFFFFF80
FFFFFFFFFFFFFF80
FFFFFFFFFFFFFF80
FFFFFFFFFFFFFF80
FFFFFFFFFFFFFF80
FFFFFFFFFFFFFF80
FFFFFFFFFFFFFF80
FFFFFFFFFFFFFF80
FFFFFFFFFFFFFF80
FFFFFFFFFFFFFF80
FFFFFFFFFFFFFF80
ENDCHAR
STARTCHAR 0047
ENCODING 71
SWIDTH 987 0
DWIDTH 59 0
BBX 51 62 4 -12
BITMAP
FFF80000000020
FFF800000000E0
FFF800000001E0
FFF800000007E0
FFF80000000FE0
FFF80000003FE0
FFF8000000FFE0
FFF8000001FFE0
FFF8000007FFE0
FFF800001FFFE0
FFF800003FFFE0
FFF80000FFFFE0
FFF80003FFFFE0
FFF80007FFFFE0
FFF8001FFFFFE0
FFF8003FFFFFE0
FFF800FFFFFFE0
FFF803FFFFFFE0
FFF807FFFFFFE0
FFF81FFFFFFFE0
FFF87FFFFFFFE0
FFF8FFFFFFFFE0
FFFBFFFFFFFFE0
FFFFFFFFFFFFE0
FFFFFFFFFFFFE0
FFFFFFFFFFFFE0
FFFFFFFFFFFFE0
FFFFFFFFFFFFE0
FFFFFFFFFFFFE0
FFFFFFFFFFFFE0
FFFFFFFFFFFFE0
FFFFFFFFFFFFE0
FFFFFFFFFFFFE0
FFFFFFFFFFFFE0
FFFFFFFFFFFFE0
FFFFFFFFFFFFE0
FFFFFFFFFFFFE0
FFFFFFFFFFFFE0
FFFFFFFFFFFFE0
FFFBFFFFFFFFE0
FFF8FFFFFFFFE0
FFF87FFFFFFFE0
FFF81FFFFFFFE0
FFF807FFFFFFE0
FFF803FFFFFFE0
FFF800FFFFFFE0
FFF8003FFFFFE0
FFF8001FFFFFE0
FFF80007FFFFE0
FFF80003FFFFE0
FFF80000FFFFE0
FFF800003FFFE0
FFF800001FFFE0
FFF8000007FFE0
FFF8000001FFE0
FFF8000000FFE0
FFF80000003FE0
FFF80000000FE0
FFF800000007E0
FFF800000001E0
FFF800000000E0
FFF80000000020
ENDCHAR
STARTCHAR 0048
ENCODING 72
SWIDTH 987 0
DWIDTH 59 0
BBX 57 56 1 -9
BITMAP
0000000008000080
0000000010000180
0000000070000380
00000000F0000780
00000001F0001F80
00000007F0003F80
0000000FF0007F80
0000001FF001FF80
0000007FF003FF80
000000FFF007FF80
000001FFF01FFF80
000007FFF03FFF80
00000FFFF07FFF80
00001FFFF1FFFF80
00007FFFE3FFFF80
0000FFFFC7FFFF80
0001FFFF9FFFFF80
0007FFFE3FFFFF80
000FFFFC7FFFFF80
001FFFF9FFFFFF80
007FFFE3FFFFFF80
00FFFFC7FFFFFF80
01FFFF9FFFFFFF80
07FFFE3FFFFFFF80
0FFFFC7FFFFFFF80
1FFFF9FFFFFFFF80
7FFFE3FFFFFFFF80
FFFFCFFFFFFFFF80
FFFFC7FFFFFFFF80
3FFFE3FFFFFFFF80
1FFFF8FFFFFFFF80
0FFFFC7FFFFFFF80
03FFFE3FFFFFFF80
01FFFF8FFFFFFF80
00FFFFC7FFFFFF80
003FFFE3FFFFFF80
001FFFF8FFFFFF80
000FFFFC7FFFFF80
0003FFFE3FFFFF80
0001FFFF8FFFFF80
0000FFFFC7FFFF80
00003FFFE3FFFF80
00001FFFF0FFFF80
00000FFFF07FFF80
000003FFF03FFF80
000001FFF00FFF80
000000FFF007FF80
0000003FF003FF80
0000001FF000FF80
0000000FF0007F80
00000003F0003F80
00000001F0000F80
00000000F0000780
0000000030000380
0000000010000180
0000000008000080
ENDCHAR
STARTCHAR 0049
ENCODING 73
SWIDTH 987 0
DWIDTH 59 0
BBX 57 58 1 -10
BITMAP
F820000000000000
F830000000000000
F83C000000000000
F83E000000000000
F83F800000000000
F83FC00000000000
F83FC00000000000
F83FC00000000000
F83FC10000000000
F83FC18000000000
F83FC1E000000000
F83FC1F000000000
F83FC1FC00000000
F83FC1FF00000000
F83FC1FF80000000
F83FC1FFE0000000
F83FC1FFF8000000
F83FC1FFFC000000
F83FC1FFFF000000
F83FC1FFFFC00000
F83FC1FFFFE00000
F83FC1FFFFF80000
F83FC1FFFFFE0000
F83FC1FFFFFF0000
F83FC1FFFFFFC000
F83FC1FFFFFFE000
F83FC1FFFFFFF800
F83FC1FFFFFFFE00
F83FC1FFFFFFFF80
F83FC1FFFFFFFF00
F83FC1FFFFFFFC00
F83FC1FFFFFFF800
F83FC1FFFFFFE000
F83FC1FFFFFFC000
F83FC1FFFFFF0000
F83FC1FFFFFC0000
F83FC1FFFFF80000
F83FC1FFFFE00000
F83FC1FFFF800000
F83FC1FFFF000000
F83FC1FFFC000000
F83FC1FFF0000000
F83FC1FFE0000000
F83FC1FF80000000
F83FC1FF00000000
F83FC1FC00000000
F83FC1F000000000
F83FC1E000000000
F83FC18000000000
F83FC10000000000
F83FC00000000000
F83FC00000000000
F83FC00000000000
F83F800000000000
F83E000000000000
F83C000000000000
F830000000000000
F820000000000000
ENDCHAR
STARTCHAR 004A
ENCODING 74
SWIDTH 987 0
DWIDTH 59 0
BBX 57 56 1 -9
BITMAP
0000000800000000
0000001C00000000
0000003C00000000
0000007E00000000
0000007F00000000
000000FF80000000
000001FF80000000
000003FFC0000000
000003FFE0000000
000007FFF0000000
00000FFFF0000000
00001FFFF8000000
00001FFFFC000000
00003FFFFE000000
00007FFFFE000000
0000FFFFFF000000
0000FFFFFF800000
0001FFFFFFC00000
0003FFFFFFE00000
0007FFFFFFE00000
0007FFFFFFF00000
000FFFFFFFF80000
001FFFFFFFFC0000
003FFFFFFFFC0000
003FFFFFFFFE0000
007FFFFFFFFF0000
00FFFFFFFFFF8000
01FFFFFFFFFF8000
01FFFFFFFFFFC000
03FFFFFFFFFFE000
07FFFFFFFFFFF000
0FFFFFFFFFFFF000
0FFFFFFFFFFFF800
1FFFFFFFFFFFFC00
3FFFFFFFFFFFFE00
7FFFFFFFFFFFFE00
7FFFFFFFFFFFFF00
FFFFFFFFFFFFFF80
0000000000000000
0000000000000000
0000000000000000
0000000000000000
FFFFFFFFFFFFFF80
FFFFFFFFFFFFFF80
FFFFFFFFFFFFFF80
FFFFFFFFFFFFFF80
FFFFFFFFFFFFFF80
FFFFFFFFFFFFFF80
FFFFFFFFFFFFFF80
FFFFFFFFFFFFFF80
FFFFFFFFFFFFFF80
FFFFFFFFFFFFFF80
FFFFFFFFFFFFFF80
FFFFFFFFFFFFFF80
FFFFFFFFFFFFFF80
FFFFFFFFFFFFFF80
ENDCHAR
STARTCHAR 004B
ENCODING 75
SWIDTH 987 0
DWIDTH 59 0
BBX 57 58 1 -9
BITMAP
000000000003C000
000000000007E000
00000000000FE000
00000000001FE000
00000000001FE000
00000000003FE000
00000000007FC000
00000000007FC000
0000000000FF8000
0000000000FF0000
0000000001FF0000
0000000001FE0000
0000000003FE0000
0000000003FC0000
0000000007FC0000
000000000FF80000
000000000FF80000
000000001FF00000
0FFFFFFFFFE00000
1FFFFFFFFFE00000
3FFFFFFFFFC00000
3FFFFFFFFFC00000
7FFFFFFFFFE00000
FFFFFFFFFFE00000
FFFFFFFFFFF00000
0FFFFFFFFFF80000
007FFFFFFFF80000
0003FFFFFFFC0000
00000FFFFFFC0000
0000007FFFFE0000
0000001FFFFE0000
0000001FFFFF0000
0000003FFFFF8000
0000007FFFFF8000
0000007FDFFFC000
000000FF8FFFC000
000000FF07FFE000
000001FF03FFE000
000001FE01FFF000
000003FC00FFF800
000003FC007FF800
000007F8007FFC00
000007F0003FFC00
0001FFF0001FFE00
000FFFE0000FFE00
000FFFC00007FF00
001FFFC00003FF80
003FFFE00001FF80
003FFFE00001FF00
0001FFE00000FF00
00001FF000007E00
000007F000003C00
000003F800001C00
000003F800000800
000001F000000800
000000F000000000
0000006000000000
0000006000000000
ENDCHAR
STARTCHAR 004C
ENCODING 76
SWIDTH 987 0
DWIDTH 59 0
BBX 49 62 5 -12
BITMAP
00000000020000
00000000020000
00000000030000
00000000070000
00000000078000
00000000078000
000000000F8000
0001FFFC0FC000
000FFFFFFFC000
003FFFFFFFE000
007FFFFFFFE000
01FFFFFFFFE000
03FFFFFFFFF000
07FFFFFFFFF000
0FFFFFFFFFF800
0FF001FFFFF800
1F80003FFFFC00
3C00000FFFFC00
70000007FFFC00
C000000FFFFE00
0000001FFFFE00
0000001FFFFF00
0000003FFFFF00
0000003FFFFF00
0000007FFFFF80
000000FFFFE000
000000FFE00000
000001E0000000
00000000000000
00000000000000
00000000000000
00000000000000
00000000000000
00000000000000
000007C0000000
0003FF80000000
03FFFF00000000
FFFFFF00000000
FFFFFE00000000
7FFFFC00000000
7FFFFC00000000
7FFFF800000000
3FFFF000000100
3FFFF000000600
1FFFF000003C00
1FFFFC0000FC00
1FFFFF8007F800
0FFFFFFFFFF000
0FFFFFFFFFE000
07FFFFFFFFC000
07FFFFFFFF8000
07FFFFFFFF0000
03FFFFFFFC0000
03FFFFFFF00000
01F83FFFC00000
01F00000000000
01F00000000000
00E00000000000
00E00000000000
00600000000000
00400000000000
00400000000000
ENDCHAR
STARTCHAR 004D
ENCODING 77
SWIDTH 987 0
DWIDTH 59 0
BBX 58 49 0 -5
BITMAP
000003F000000000
00007FFF80000000
0001FFFFE0000000
0007FFFFF8000000
001FFFFFFE000000
003FFFFFFF000000
007FFFFFFF800000
00FFFFFFFFC00000
01FFF003FFE00000
03FF80007FF00000
07FE00001FF80000
0FFC00000FFC0000
0FF8000007FC0000
1FF0000003FE0000
1FE0000001FE0000
3FE0000001FF0000
3FC0000000FF0000
3F800000007F0000
7F800000007F8000
7F800000007F8000
7F0000007FFFFFC0
7F0000003FFFFF80
7F0000001FFFFF00
FF0000000FFFFE00
FF00000007FFFC00
FF00000007FFF800
FF00000003FFF800
7F00000001FFF000
7F00000000FFE000
7F000000007FC000
7F800000003F8000
7F800000003F0000
3FC00000001F0000
3FC00000000E0000
3FE0000000040000
1FE0000000000000
1FF0000000000000
0FF8000000000000
07FE000010000000
07FF000030000000
03FFC000F0000000
01FFF807F8000000
00FFFFFFF8000000
007FFFFFFC000000
003FFFFFFC000000
000FFFFFFE000000
0007FFFFF8000000
0001FFFFC0000000
00003FFE00000000
ENDCHAR
STARTCHAR 004E
ENCODING 78
SWIDTH 987 0
DWIDTH 59 0
BBX 58 42 0 -2
BITMAP
0000000000007800
000000000000FC00
000000000001FE00
000000000003FF00
000000000007FF80
00000000000FFFC0
00000000001FFFC0
00000000003FFFC0
00000000007FFFC0
0000000000FFFF80
0000000001FFFF00
0000000003FFFE00
0380000007FFFC00
0FC000000FFFF800
1FE000001FFFF000
3FF000003FFFE000
7FF800007FFFC000
7FFC0000FFFF8000
FFFE0001FFFF0000
7FFF0003FFFE0000
7FFF8007FFFC0000
3FFFC00FFFF80000
1FFFE01FFFF00000
0FFFF03FFFE00000
07FFF87FFFC00000
03FFFCFFFF800000
01FFFFFFFF000000
00FFFFFFFE000000
007FFFFFFC000000
003FFFFFF8000000
001FFFFFF0000000
000FFFFFE0000000
0007FFFFC0000000
0003FFFF80000000
0001FFFF00000000
0000FFFE00000000
00007FFC00000000
00003FF800000000
00001FF000000000
00000FE000000000
000007C000000000
0000010000000000
ENDCHAR
STARTCHAR 004F
ENCODING 79
SWIDTH 987 0
DWIDTH 59 0
BBX 57 58 1 -10
BITMAP
1F80000000000000
7FFF000000000000
7FFFF00000000000
FFFFFE0000000000
FFFFFFC000000000
FFFFFFF000000000
FFFFFFFC00000000
FFFFFFFE00000000
FFFFFFFF80000000
7FFFFFFFE0000000
1FFFFFFFF0000000
001FFFFFF8000000
0000FFFFFE000000
00001FFFFF000000
000003FFFF800000
000000FFFFC00000
0000003FFFE00000
1FC0001FFFF00000
7FFE0007FFF80000
FFFFC003FFF80000
FFFFF001FFFC0000
FFFFFC00FFFE0000
FFFFFF003FFF0000
FFFFFF801FFF0000
FFFFFFE00FFF8000
FFFFFFF00FFFC000
7FFFFFF807FFC000
1FFFFFFC03FFE000
001FFFFE01FFE000
0003FFFF01FFF000
0000FFFF80FFF000
00003FFF807FF800
00001FFFC07FF800
000007FFE03FF800
000003FFE03FFC00
000001FFF01FFC00
000000FFF01FFE00
000000FFF80FFE00
01E0007FF80FFE00
07FC003FFC0FFE00
1FFE003FFC07FF00
3FFF001FFC07FF00
7FFF801FFE07FF00
7FFFC00FFE07FF00
FFFFC00FFE07FF00
FFFFE00FFE03FF80
FFFFE007FF03FF80
FFFFE007FF03FF80
FFFFE007FF03FF80
FFFFE007FF03FF80
FFFFE007FF03FF80
FFFFC007FF03FF80
7FFFC007FF03FF80
7FFF8003FF03FF80
3FFF0003FF01FF80
1FFE0003FE01FF00
07FC0001FC00FE00
01E0000070003800
ENDCHAR
STARTCHAR 0050
ENCODING 80
SWIDTH 987 0
DWIDTH 59 0
BBX 54 62 2 -12
BITMAP
0000007C000000
00000FFFC00000
00003FFFF80000
0000FFFFFC0000
0003FFFFFF0000
0007FFFFFF8000
000FFFFFFFC000
001FFFFFFFE000
003FFFFFFFF000
007FFF87FFF800
007FFC007FFC00
00FFF0003FFC00
01FFE0000FFE00
01FFC00007FE00
01FF800003FF00
03FF000003FF00
03FE000001FF80
03FE000001FF80
07FE000000FF80
07FC000000FF80
07FC000000FF80
07FC000000FF80
07FC000000FF80
07FC000000FF80
07FC000000FF80
07FC000000FF80
07FC000000FF80
07FC000000FF80
FFFFFFFFFFFFFC
FFFFFFFFFFFFFC
FFFFFFFFFFFFFC
FFFFFFFFFFFFFC
FFFFFFFFFFFFFC
FFFFFFFFFFFFFC
FFFFFFFFFFFFFC
FFFFFFCFFFFFFC
FFFFFF03FFFFFC
FFFFFF01FFFFFC
FFFFFE01FFFFFC
FFFFFE01FFFFFC
FFFFFE01FFFFFC
FFFFFF01FFFFFC
FFFFFF03FFFFFC
FFFFFF87FFFFFC
FFFFFF83FFFFFC
FFFFFF83FFFFFC
FFFFFF83FFFFFC
FFFFFF83FFFFFC
FFFFFF83FFFFFC
FFFFFF83FFFFFC
FFFFFF03FFFFFC
FFFFFF03FFFFFC
FFFFFF03FFFFFC
FFFFFF03FFFFFC
FFFFFFFFFFFFFC
FFFFFFFFFFFFFC
FFFFFFFFFFFFFC
FFFFFFFFFFFFFC
FFFFFFFFFFFFFC
FFFFFFFFFFFFFC
FFFFFFFFFFFFFC
FFFFFFFFFFFFFC
ENDCHAR
STARTCHAR 0051
ENCODING 81
SWIDTH 987 0
DWIDTH 59 0
BBX 58 58 0 -10
BITMAP
000FFFFFFFFC0000
000FFFFFFFFC0000
000FFFFFFFFC0000
000FFFFFFFFC0000
000FFFFFFFFC0000
000FFFFFFFFC0000
000FFFFFFFFC0000
000FFFFFFFFC0000
000FFFFFFFFC0000
000FFFFFFFFC0000
000FFFFFFFFC0000
000FFFFFFFFC0000
000FFFFFFFFC0000
000FFFFFFFFC0000
000FFFFFFFFC0000
000FFFFFFFFC0000
000FFFFFFFFC0000
000FFFFFFFFC0000
000FFFFFFFFC0000
000FFFFFFFFC0000
000FFFFFFFFC0000
0000000E00000000
0000000E00000000
0000000E00000000
0000000E00000000
0000000600000000
0000000600000000
0000000600000000
0000000600000000
0000000600000000
000FFFFFFFFF0000
000FFFFFFFFF0000
000C000000070000
000C000000070000
000C000000070000
000C000000070000
000C000000070000
000C000000070000
FFFFFF803FFFFFC0
FFFFFF803FFFFFC0
FFFFFF803FFFFFC0
FFFFFF803FFFFFC0
FFFFFF803FFFFFC0
FFFFFF803FFFFFC0
FFFFFF803FFFFFC0
FFFFFF803FFFFFC0
FFFFFF803FFFFFC0
FFFFFF803FFFFFC0
FFFFFF803FFFFFC0
FFFFFF803FFFFFC0
FFFFFF803FFFFFC0
FFFFFF803FFFFFC0
FFFFFF803FFFFFC0
FFFFFF803FFFFFC0
FFFFFF803FFFFFC0
FFFFFF803FFFFFC0
FFFFFF803FFFFFC0
FFFFFF803FFFFFC0
ENDCHAR
STARTCHAR 0052
ENCODING 82
SWIDTH 987 0
DWIDTH 59 0
BBX 57 34 1 2
BITMAP
0000070000000000
000007C000000000
000007E000000000
000003F000000000
000001FC00000000
000001FE00000000
007FFFFF07FE0000
01FFFFFF87FFC000
07FFFFFFE7FFE000
0FFFFFFFE7FFF000
1FFFFFFFE7FFF800
3FFFFFFF87FFFC00
3FFFFFFF07FFFE00
7FE001FE0007FF00
7FC003F80001FF00
FF0003F00000FF00
FF0007E000007F80
FE0007C000007F80
FE00070000003F80
FE00000000003F80
FE00000000003F80
FE00000000003F80
FE00000000007F80
FF00000000007F80
FF0000000000FF00
7FC000000001FF00
7FE000000007FF00
3FFFFFFFFFFFFE00
3FFFFFFFFFFFFC00
1FFFFFFFFFFFF800
0FFFFFFFFFFFF000
03FFFFFFFFFFE000
01FFFFFFFFFFC000
007FFFFFFFFE0000
ENDCHAR
STARTCHAR 0053
ENCODING 83
SWIDTH 987 0
DWIDTH 59 0
BBX 58 48 0 -5
BITMAP
0000000003C00000
0000000007E00000
000000000FF00000
000000001FF80000
000000003FFC0000
000000007FFE0000
00000000FFFF0000
00000001FFFF8000
00000003FFFFC000
7FFFFF87FFFFE000
FFFFFF8FFFFFF000
FFFFFF9FFFFFF800
FFFFFF3FFFFFFC00
FFFFFE7FFFFFFE00
FFFFFCFFFFFFFF00
FFFFF9FFFFFFFF80
FFFFF3FFEFFFFF80
FFFFF3FF8FF3FFC0
FFFFF3FE2FF0FFC0
FFC003F80FF03F80
FF8001E00FF00780
FF9FFC0FCFF3E040
FF1FFFFFCFF3FFC0
FF3FFFFFCFF3FFC0
FF3FFFFFCFF3FFC0
FE3FFFFFCFF3FF80
FE7FFFFFCFF3FF80
FE7FFFFFCFF3FF80
FE7FFFFFCFF3FF80
FC7FFFFFCFF3FF00
FCFFFFFFCFF3FF00
FCFFFFFFCFF3FF00
F8FFFFFFCFF3FE00
F9FFFFFFCFF3FE00
F9FFFFFFCFF3FE00
F9FFFFFFCFF3FE00
F1FFFFFFCFF3FC00
F3FFFFFFCFF7FC00
F3FFFFFFE3E7FC00
E3FFFFFFF00FF800
E7FFFFFFFFFFF800
E7FFFFFFFFFFF800
E7FFFFFFFFFFF800
47FFFFFFFFFFF000
0FFFFFFFFFFFF000
0FFFFFFFFFFFF000
0FFFFFFFFFFFE000
0FFFFFFFFFFFC000
ENDCHAR
STARTCHAR 0054
ENCODING 84
SWIDTH 987 0
DWIDTH 59 0
BBX 58 58 0 -10
BITMAP
0000007FC0000000
00000FFFFC000000
00003FFFFF800000
0000FFFFFFE00000
0003FFFFFFF00000
000FFFFFFFFC0000
001FFFFFFFFE0000
003FFFFFFFFF0000
007FFFFFFFFF8000
00FFFF001FFFC000
01FFF80007FFE000
03FFE00001FFF000
03FF8000007FF800
07FFC000003FF800
0FFFE000001FFC00
0FFFF000000FFE00
1FFFF8000007FE00
1FFBFC000003FF00
3FF1FE000003FF00
3FE0FF000001FF00
3FE07F800000FF80
7FC03FC00000FF80
7FC01FE00000FF80
7FC00FF000007F80
7F8007F800007FC0
7F8003FC00007FC0
7F8001FE00007FC0
FF8000FF00007FC0
FF80007F80007FC0
FF80003FC0007FC0
FF80001FE0007FC0
FF80000FF0007FC0
7F800007F8007FC0
7F800003FC007FC0
7FC00001FE007F80
7FC00000FF00FF80
7FC000007F80FF80
3FE000003FC1FF80
3FE000001FE1FF00
3FF000000FF3FF00
1FF8000007FBFF00
1FF8000003FFFE00
0FFC000001FFFE00
0FFE000000FFFC00
07FF0000007FF800
03FFC000007FF800
03FFE00001FFF000
01FFF80007FFE000
00FFFF003FFFC000
007FFFFFFFFF8000
003FFFFFFFFF0000
001FFFFFFFFE0000
0007FFFFFFFC0000
0003FFFFFFF00000
0000FFFFFFC00000
00003FFFFF000000
000007FFF8000000
0000003F00000000
ENDCHAR
STARTCHAR 0055
ENCODING 85
SWIDTH 987 0
DWIDTH 59 0
BBX 58 51 0 -6
BITMAP
0000000600000000
0000000F00000000
0000001F00000000
0000003F00000000
0000007F00000000
0000007F00000000
000000FF00000000
000001FF00000000
000003FF00000000
000007FF00000000
00000FFF00000000
00001FFF00000000
00003FFF00000000
00007FFF00000000
0000FFFF00000000
3FFFFFFF00000000
FFFFFFFF00000000
FFFFFFFF00000000
FFFFFFFF00000000
FFFFFFFF00000000
FFFFFFFF00000000
FFFFFFFF00000000
FFFFFFFF00000000
FFFFFFFF07FFFFC0
FFFFFFFF07FFFFC0
FFFFFFFF07FFFFC0
FFFFFFFF07FFFFC0
FFFFFFFF07FFFFC0
FFFFFFFF07FFFFC0
FFFFFFFF00000000
FFFFFFFF00000000
FFFFFFFF00000000
FFFFFFFF00000000
FFFFFFFF00000000
FFFFFFFF00000000
7FFFFFFF00000000
0000FFFF00000000
00007FFF00000000
00007FFF00000000
00003FFF00000000
00001FFF00000000
00000FFF00000000
000007FF00000000
000003FF00000000
000001FF00000000
000000FF00000000
0000007F00000000
0000003F00000000
0000001F00000000
0000000F00000000
0000000600000000
ENDCHAR
STARTCHAR 0056
ENCODING 86
SWIDTH 987 0
DWIDTH 59 0
BBX 57 53 1 -7
BITMAP
0000000400000000
0000000700000000
0000000F00000000
0000001F00000000
0000003F00000000
0000007F00000000
000000FF00000000
000001FF00000000
000003FF00000000
000007FF00000000
00000FFF00000000
00001FFF00000000
00003FFF00000000
00007FFF00000000
00007FFF00000000
0000FFFF00000000
FFFFFFFF001FC000
FFFFFFFF001FC000
FFFFFFFF001FC000
FFFFFFFF001FC000
FFFFFFFF001FC000
FFFFFFFF001FC000
FFFFFFFF001FC000
FFFFFFFF001FC000
FFFFFFFF0FFFFF80
FFFFFFFF0FFFFF80
FFFFFFFF0FFFFF80
FFFFFFFF0FFFFF80
FFFFFFFF0FFFFF80
FFFFFFFF0FFFFF80
FFFFFFFF001FC000
FFFFFFFF001FC000
FFFFFFFF001FC000
FFFFFFFF001FC000
FFFFFFFF001FC000
FFFFFFFF001FC000
FFFFFFFF001FC000
0001FFFF001FC000
0000FFFF00000000
00007FFF00000000
00003FFF00000000
00001FFF00000000
00001FFF00000000
00000FFF00000000
000007FF00000000
000003FF00000000
000001FF00000000
000000FF00000000
0000007F00000000
0000003F00000000
0000001F00000000
0000000F00000000
0000000700000000
ENDCHAR
STARTCHAR 0057
ENCODING 87
SWIDTH 987 0
DWIDTH 59 0
BBX 58 56 0 -9
BITMAP
001F8000007F8000
00FFF00003FFE000
03FFFC000FFFF800
07FFFE001FFFFC00
0FFFFF003FFFFE00
1FFFFF807FFFFF00
3FFFFFC0FFFFFF00
3FFFFFE1FFFFFF80
7FFFFFE3FFFFFF80
7FFFFFF3FFFFFFC0
7FFFFFF7FFFFFFC0
7FFFFFFFFFFFFFC0
FFFFFFFFFFFFFFC0
7FFFFFFFFFFFFFC0
7FFFFFFFFFFFFFC0
7FFFFFFFFFFFFFC0
7FFFFFFFFFFFFFC0
7FFFFFFFFFFFFFC0
3FFFFFFFFFFFFF80
3FFFFFFFFFFFFF80
1FFFFFFFFFFFFF00
1FFFFFFFFFFFFF00
0FFFFFFFFFFFFE00
07FFFFFFFFFFFC00
03FFFFFFFFFFFC00
03FFFFFFFFFFF800
01FFFFFFFFFFF000
00FFFFFFFFFFE000
007FFFFFFFFFC000
003FFFFFFFFF8000
001FFFFFFFFF0000
000FFFFFFFFE0000
0007FFFFFFFC0000
0003FFFFFFF80000
0001FFFFFFF00000
0000FFFFFFE00000
00007FFFFFE00000
00003FFFFFC00000
00001FFFFF800000
00000FFFFF000000
000007FFFE000000
000003FFFC000000
000001FFF8000000
000000FFF0000000
0000007FE0000000
0000003FC0000000
0000003FC0000000
0000001F80000000
0000001F00000000
0000000F00000000
0000000E00000000
0000000E00000000
0000000400000000
0000000400000000
0000000400000000
0000000400000000
ENDCHAR
STARTCHAR 0058
ENCODING 88
SWIDTH 987 0
DWIDTH 59 0
BBX 48 62 5 -12
BITMAP
000700000000
001F80000000
001F80000000
001F80000000
001F80000000
001F80000000
001F80000000
001F80000000
001F80000000
001F80000000
001F80000000
001F80000000
001F80000000
001F80000000
001F80000000
001F80000000
001F80000000
001F81C00000
001F83E00000
001F87F00000
001F87F02000
001F87F0F800
001F87F0FC00
001F87F0FC1F
001F87F0FC3F
001F87F0FC3F
7C1F87F0FC3F
7E1F87F1FC3F
FE1FFFFFFFFF
FE1FFFFFFFFF
FE1FFFFFFFFF
FE1FFFFFFFFF
FE1FFFFFFFFF
FE1FFFFFFFFF
FE1FFFFFFFFF
FE1FFFFFFFFF
FE1FFFFFFFFF
FE1FFFFFFFFF
FE1FFFFFFFFF
FF7FFFFFFFFF
FFFFFFFFFFFF
FFFFFFFFFFFF
FFFFFFFFFFFF
7FFFFFFFFFFF
7FFFFFFFFFFF
7FFFFFFFFFFF
3FFFFFFFFFFF
1FFFFFFFFFFF
1FFFFFFFFFFF
0FFFFFFFFFFF
07FFFFFFFFFF
07FFFFFFFFFF
03FFFFFFFFFF
01FFFFFFFFFF
01FFFFFFFFFF
00FFFFFFFFFF
007FFFFFFFFF
007FFFFFFFFF
003FFFFFFFFF
001FFFFFFFFE
000FFFFFFFFC
0003FFFFFFF0
ENDCHAR
STARTCHAR 0059
ENCODING 89
SWIDTH 987 0
DWIDTH 59 0
BBX 44 62 7 -12
BITMAP
000007000000
00000F800000
00001F800000
00001F800000
00001F800000
00001F800000
001E1F87C000
003F1F87C000
003F1F87E000
003F1F87E000
003F1F87E000
003F1F87E000
003F1F87E000
003F1F87E1E0
003F1F87E3F0
003F1F87E3F0
003F1F87E3F0
003F1F87E3F0
003F1F87E3F0
003F1F87E3F0
003F1F87E3F0
003F1F87E3F0
003F1F87E3F0
003F1F87E3F0
003F1F87E3F0
003F1F87E3F0
003F1F87E3F0
003F1F87E3F0
003F1F87E3F0
783F1F87E3F0
7C3F1F8FE3F0
FC3FFFFFFFF0
FC3FFFFFFFF0
FC3FFFFFFFF0
FC3FFFFFFFF0
FC3FFFFFFFF0
FC3FFFFFFFF0
FC3FFFFFFFF0
FC3FFFFFFFF0
FC3FFFFFFFF0
FC3FFFFFFFF0
FFFFFFFFFFF0
FFFFFFFFFFF0
FFFFFFFFFFF0
7FFFFFFFFFF0
7FFFFFFFFFF0
7FFFFFFFFFF0
3FFFFFFFFFF0
1FFFFFFFFFF0
1FFFFFFFFFF0
0FFFFFFFFFF0
0FFFFFFFFFF0
07FFFFFFFFF0
03FFFFFFFFF0
03FFFFFFFFF0
01FFFFFFFFF0
00FFFFFFFFF0
00FFFFFFFFF0
007FFFFFFFE0
003FFFFFFFE0
001FFFFFFFC0
0007FFFFFE00
ENDCHAR
STARTCHAR 005A
ENCODING 90
SWIDTH 987 0
DWIDTH 59 0
BBX 58 59 0 -10
BITMAP
0000000000008000
000000000001E000
000000000001E000
00000000C001F000
00000001E001F000
00000003E000F800
00000007E000F800
0000000FE0007C00
0000001FE0007C00
0000003FE0007C00
0000007FE0F03E00
000000FFE0F03E00
000001FFE0F83F00
000003FFE0F83F00
000003FFE0781F00
000007FFE07C1F00
00000FFFE07C1F80
00001FFFE07C1F80
00003FFFE07E1F80
3FFFFFFFE03E0F80
FFFFFFFFE03E0F80
FFFFFFFFE03E0FC0
FFFFFFFFE03E0FC0
FFFFFFFFE03F0FC0
FFFFFFFFE03F0FC0
FFFFFFFFE03F0FC0
FFFFFFFFE03F0FC0
FFFFFFFFE03F0FC0
FFFFFFFFE03F0FC0
FFFFFFFFE03F0FC0
FFFFFFFFE03F0FC0
FFFFFFFFE03F0FC0
FFFFFFFFE03F0FC0
FFFFFFFFE03F0FC0
FFFFFFFFE03F0FC0
FFFFFFFFE03F0FC0
FFFFFFFFE03F0FC0
FFFFFFFFE03E0FC0
FFFFFFFFE03E0FC0
FFFFFFFFE03E0F80
FFFFFFFFE03E1F80
7FFFFFFFE07C1F80
00007FFFE07C1F80
00003FFFE07C1F00
00001FFFE07C1F00
00000FFFE0F83F00
000007FFE0F83F00
000007FFE0F03E00
000003FFE0F03E00
000001FFE0F07E00
000000FFE0407C00
0000007FE0007C00
0000003FE000F800
0000001FE000F800
0000000FE000F000
00000007E001F000
00000003E001E000
00000001E001E000
00000000C000C000
ENDCHAR
STARTCHAR 005B
ENCODING 91
SWIDTH 987 0
DWIDTH 59 0
BBX 57 56 1 -9
BITMAP
C000000000000000
F000000000000000
FC00000000000000
FF00000000000000
FFC0000000000000
FFF0000000000000
FFFC000000000000
FFFF000000000000
FFFFC00000000000
FFFFF00000000000
FFFFFC0000000000
FFFFFF0000000000
FFFFFFC000000000
FFFFFFF000000000
FFFFFFFC00000000
FFFFFFFF00000000
FFFFFFFFC0000000
FFFFFFFFF0000000
FFFFFFFFFC000000
FFFFFFFFFF000000
FFFFFFFFFFC00000
FFFFFFFFFFF00000
FFFFFFFFFFFC0000
FFFFFFFFFFFF0000
FFFFFFFFFFFFC000
FFFFFFFFFFFFF000
FFFFFFFFFFFFFC00
FFFFFFFFFFFFFF80
FFFFFFFFFFFFFF00
FFFFFFFFFFFFFC00
FFFFFFFFFFFFF000
FFFFFFFFFFFFC000
FFFFFFFFFFFF0000
FFFFFFFFFFFC0000
FFFFFFFFFFF00000
FFFFFFFFFFC00000
FFFFFFFFFF000000
FFFFFFFFFC000000
FFFFFFFFF0000000
FFFFFFFF80000000
FFFFFFFE00000000
FFFFFFF800000000
FFFFFFE000000000
FFFFFF8000000000
FFFFFE0000000000
FFFFF80000000000
FFFFE00000000000
FFFF800000000000
FFFE000000000000
FFF8000000000000
FFE0000000000000
FF80000000000000
FE00000000000000
F800000000000000
E000000000000000
8000000000000000
ENDCHAR
STARTCHAR 005C
ENCODING 92
SWIDTH 987 0
DWIDTH 59 0
BBX 58 58 0 -10
BITMAP
FFFFFFFFFFFFFFC0
7FFFFFFFFFFFFF80
3FFFFFFFFFFFFF80
3FFFFFFFFFFFFF00
1FFFFFFFFFFFFF00
1FFFFFFFFFFFFE00
0FFFFFFFFFFFFE00
0FFFFFFFFFFFFC00
07FFFFFFFFFFFC00
07FFFFFFFFFFF800
03FFFFFFFFFFF800
03FFFFFFFFFFF000
01FFFFFFFFFFF000
01FFFFFFFFFFE000
00FFFFFFFFFFE000
00FFFFFFFFFFC000
007FFFFFFFFFC000
007FFFFFFFFF8000
003FFFFFFFFF8000
003FFFFFFFFF0000
001FFFFFFFFF0000
001FFFFFFFFE0000
000FFFFFFFFE0000
000FFFFFFFFC0000
0007FFFFFFFC0000
0007FFFFFFF80000
0003FFFFFFF80000
0003FFFFFFF00000
0001FFFFFFF00000
0001FFFFFFE00000
0000FFFFFFE00000
0000FFFFFFC00000
00007FFFFFC00000
00007FFFFF800000
00003FFFFF800000
00003FFFFF000000
00001FFFFF000000
00001FFFFE000000
00000FFFFE000000
00000FFFFC000000
000007FFFC000000
000007FFF8000000
000003FFF8000000
000003FFF0000000
000001FFF0000000
000001FFE0000000
000000FFE0000000
000000FFC0000000
0000007FC0000000
0000007F80000000
0000003F80000000
0000003F00000000
0000001F00000000
0000001E00000000
0000000E00000000
0000000C00000000
0000000400000000
0000000400000000
ENDCHAR
STARTCHAR 005D
ENCODING 93
SWIDTH 987 0
DWIDTH 59 0
BBX 57 58 1 -10
BITMAP
0000000000000080
0000000000000180
0000000000000780
0000000000001F80
0000000000007F80
000000000001FF80
000000000007FF80
00000000001FFF80
00000000007FFF80
0000000001FFFF80
0000000007FFFF80
000000001FFFFF80
000000007FFFFF80
00000001FFFFFF80
00000007FFFFFF80
0000001FFFFFFF80
0000007FFFFFFF80
000001FFFFFFFF80
000007FFFFFFFF80
00001FFFFFFFFF80
00007FFFFFFFFF80
0001FFFFFFFFFF80
0007FFFFFFFFFF80
001FFFFFFFFFFF80
007FFFFFFFFFFF80
01FFFFFFFFFFFF80
07FFFFFFFFFFFF80
1FFFFFFFFFFFFF80
7FFFFFFFFFFFFF80
FFFFFFFFFFFFFF80
3FFFFFFFFFFFFF80
0FFFFFFFFFFFFF80
03FFFFFFFFFFFF80
00FFFFFFFFFFFF80
003FFFFFFFFFFF80
000FFFFFFFFFFF80
0003FFFFFFFFFF80
0000FFFFFFFFFF80
00003FFFFFFFFF80
00000FFFFFFFFF80
000001FFFFFFFF80
0000007FFFFFFF80
0000001FFFFFFF80
00000007FFFFFF80
00000001FFFFFF80
000000007FFFFF80
000000001FFFFF80
0000000007FFFF80
0000000001FFFF80
00000000007FFF80
00000000001FFF80
000000000007FF80
000000000001FF80
0000000000007F80
0000000000001F80
0000000000000780
0000000000000180
0000000000000080
ENDCHAR
STARTCHAR 005E
ENCODING 94
SWIDTH 987 0
DWIDTH 59 0
BBX 57 20 1 9
BITMAP
0040000000010000
0080000000018000
018000000000C000
038000000000E000
070000000000F000
0F00000000007800
1F00000000007C00
3FFFFFFFFFFFFE00
7FFFFFFFFFFFFF00
FFFFFFFFFFFFFF80
FFFFFFFFFFFFFF80
7FFFFFFFFFFFFF00
3FFFFFFFFFFFFE00
1F00000000007C00
0F00000000007800
070000000000F000
038000000000E000
018000000000C000
0080000000018000
0040000000010000
ENDCHAR
STARTCHAR 005F
ENCODING 95
SWIDTH 987 0
DWIDTH 59 0
BBX 22 62 18 -12
BITMAP
001000
003000
007800
00FC00
01FE00
03FF00
07FF80
0FFFC0
1FFFE0
38FC70
40FC0C
80FC00
00FC00
00FC00
00FC00
00FC00
00FC00
00FC00
00FC00
00FC00
00FC00
00FC00
00FC00
00FC00
00FC00
00FC00
00FC00
00FC00
00FC00
00FC00
00FC00
00FC00
00FC00
00FC00
00FC00
00FC00
00FC00
00FC00
00FC00
00FC00
00FC00
00FC00
00FC00
00FC00
00FC00
00FC00
00FC00
00FC00
00FC00
00FC00
80FC00
60FC0C
3CFC70
1FFFE0
0FFFC0
07FF80
03FF00
01FE00
00FC00
007800
003000
001000
ENDCHAR
STARTCHAR 0060
ENCODING 96
SWIDTH 987 0
DWIDTH 59 0
BBX 22 62 18 -12
BITMAP
007C00
007C00
007C00
007C00
007C00
007C00
007C00
007C00
007C00
007C00
007C00
007C00
007C00
007C00
007C00
007C00
007C00
007C00
007C00
007C00
007C00
007C00
007C00
007C00
007C00
007C00
007C00
007C00
007C00
007C00
007C00
007C00
007C00
007C00
007C00
007C00
007C00
007C00
007C00
007C00
007C00
007C00
007C00
007C00
007C00
007C00
007C00
007C00
007C00
007C00
807C00
607C0C
3C7C78
1FFFF0
0FFFE0
07FFC0
03FF80
01FF00
00FE00
007C00
003800
001000
ENDCHAR
STARTCHAR 0061
ENCODING 97
SWIDTH 987 0
DWIDTH 59 0
BBX 58 33 0 3
BITMAP
0000000000004000
0000000000004000
000000000000C000
000001E00001C000
00003FFF0001E000
0000FFFFE003E000
0003FFFFF803E000
0007FFFFFE07E000
000FFFFFFF87F000
001FFFFFFFEFF000
003FFFFFFFFFF000
007FFFFFFFFFF000
00FFFFFFFFFFF800
01FFFFFFFFFFF800
03FFFFFFFFFFF800
03FFFFFFFFFFFC00
07FF00FFFFFFFC00
07F8000FFFFFFC00
0FE00003FFFFFC00
1F800001FFFFFE00
1E0000007FFFFE00
3C0000003FFFFE00
300000007FFFFE00
60000000FFFFFF00
40000001FFFFFF00
80000003FFFFFF00
00000003FFFFFF80
00000007FFFFFF80
0000000FFFFFFF80
0000001FFFFFFF80
0000003FFFFFFFC0
0000007FFFFFFFC0
000000FFFFFFFFC0
ENDCHAR
STARTCHAR 0062
ENCODING 98
SWIDTH 987 0
DWIDTH 59 0
BBX 57 32 1 3
BITMAP
0080000000000000
00C0000000000000
00C0000000000000
01E0001FFC000000
01E000FFFF000000
01F007FFFFC00000
01F81FFFFFF00000
03F87FFFFFF80000
03FCFFFFFFFC0000
03FFFFFFFFFE0000
03FFFFFFFFFF0000
07FFFFFFFFFF8000
07FFFFFFFFFFC000
07FFFFFFFFFFE000
07FFFFFFFFFFE000
0FFFFFFFC0FFF000
0FFFFFFE000FF800
0FFFFFF00003F800
1FFFFFE00000FC00
1FFFFF8000003C00
1FFFFF0000001E00
1FFFFF8000000600
3FFFFFC000000300
3FFFFFC000000100
3FFFFFE000000080
3FFFFFF000000000
7FFFFFF800000000
7FFFFFFC00000000
7FFFFFFE00000000
7FFFFFFE00000000
FFFFFFFF00000000
FFFFFFFF80000000
ENDCHAR
STARTCHAR 0063
ENCODING 99
SWIDTH 987 0
DWIDTH 59 0
BBX 57 61 1 -12
BITMAP
000000FFC0000000
000001FFE0000000
000003FFE0000000
000003FFF0000000
000003FFF0000000
000003FFF0000000
000003FFF0000000
000003FFF0000000
000003FFF0000000
000003FFF0000000
000003FFF0000000
000003FFF0000000
000003FFF0000000
000003FFF0000000
000003FFF0000000
000003FFF0000000
000003FFF0000000
000003FFF0000000
000003FFF0000000
000003FFF0000000
000003FFF0000000
000003FFF0000000
000003FFF0000000
000003FFF0000000
000003FFF0000000
000003FFF0000000
000003FFF0000000
000003FFF0000000
3E0003FFF0007E00
7F8003FFF001FF00
FFE003FFF007FF00
FFF803FFF01FFF80
FFFE03FFF07FFF80
FFFFC3FFF1FFFF80
FFFFF3FFF7FFFF80
FFFFFFFFFFFFFF00
7FFFFFFFFFFFFF00
3FFFFFFFFFFFFE00
1FFFFFFFFFFFFC00
0FFFFFFFFFFFF800
07FFFFFFFFFFF000
03FFFFFFFFFFE000
01FFFFFFFFFFC000
00FFFFFFFFFF8000
007FFFFFFFFF0000
003FFFFFFFFE0000
001FFFFFFFFC0000
000FFFFFFFF80000
0007FFFFFFF00000
0003FFFFFFE00000
0001FFFFFFC00000
0000FFFFFF800000
00007FFFFF000000
00003FFFFE000000
00001FFFFC000000
00000FFFF8000000
000007FFF0000000
000003FFE0000000
000001FFC0000000
000000FF80000000
0000007E00000000
ENDCHAR
STARTCHAR 0064
ENCODING 100
SWIDTH 987 0
DWIDTH 59 0
BBX 57 58 1 -10
BITMAP
0000000000020000
00000000000FC000
00000000001FE000
00000000003FF000
00000000007FF800
0000000000FFFC00
0F00000001FFFE00
1FC0000003FFFF00
7FC0000007FFFF00
7FE000000FFFFF80
FFF000001FFFFF80
FFF000003FFFFF00
FFF000007FFFFF00
FFF80000FFFFFE00
FFF80001FFFFFC00
FFFC0003FFFFF800
FFFC0007FFFFF000
FFFC000FFFFFE000
FFFE001FFFFFC000
FFFE003FFFFF8000
FFFE007FFFFF0000
FFFE00FFFFFE0000
FFFF01FFFFFC0000
FFFF03FFFFF80000
FFFF07FFFFF00000
FFFF8FFFFFE00000
FFFF9FFFFFC00000
FFFFFFFFFF800000
FFFFFFFFFF000000
FFFFFFFFFE000000
FFFFFFFFFC000000
FFFFFFFFF8000000
FFFFFFFFF0000000
FFFFFFFFE0000000
FFFFFFFFC0000000
FFFFFFFF80000000
FFFFFFFF00000000
FFFFFFFE00000000
FFFFFFFC00000000
FFFFFFF800000000
FFFFFFFE00000000
FFFFFFFFC0000000
FFFFFFFFF8000000
FFFFFFFFFF000000
FFFFFFFFFFE00000
FFFFFFFFFFF80000
FFFFFFFFFFFF0000
FFFFFFFFFFFF8000
FFFFFFFFFFFFC000
FFFFFFFFFFFFE000
FFFFFFFFFFFFF000
FFFFFFFFFFFFF000
FFFFFFFFFFFFE000
FFFFFFFFFFFFE000
7FFFFFFFFFFFE000
7FFFFFFFFFFFC000
1FFFFFFFFFFF8000
0FFFFFFFFFFE0000
ENDCHAR
STARTCHAR 0065
ENCODING 101
SWIDTH 987 0
DWIDTH 59 0
BBX 57 58 1 -10
BITMAP
0060000000000000
01F8000000000000
03FC000000000000
07FE000000000000
0FFF000000000000
1FFF800000000000
3FFFC0000000F000
7FFFE0000001FC00
FFFFF0000003FE00
FFFFF8000007FF00
FFFFFC000007FF00
FFFFFE00000FFF80
7FFFFF00000FFF80
7FFFFF80000FFF80
3FFFFFC0001FFF80
1FFFFFE0001FFF80
0FFFFFF0001FFF80
07FFFFF8003FFF80
03FFFFFC003FFF80
01FFFFFE003FFF80
00FFFFFF007FFF80
007FFFFF807FFF80
003FFFFFC07FFF80
001FFFFFE0FFFF80
000FFFFFF0FFFF80
0007FFFFF8FFFF80
0003FFFFFDFFFF80
0001FFFFFFFFFF80
0000FFFFFFFFFF80
00007FFFFFFFFF80
00003FFFFFFFFF80
00001FFFFFFFFF80
00000FFFFFFFFF80
000007FFFFFFFF80
000003FFFFFFFF80
000001FFFFFFFF80
000000FFFFFFFF80
0000007FFFFFFF80
0000003FFFFFFF80
0000001FFFFFFF80
0000007FFFFFFF80
000001FFFFFFFF80
00000FFFFFFFFF80
00007FFFFFFFFF80
0003FFFFFFFFFF80
001FFFFFFFFFFF80
007FFFFFFFFFFF80
01FFFFFFFFFFFF80
03FFFFFFFFFFFF80
07FFFFFFFFFFFF80
07FFFFFFFFFFFF80
07FFFFFFFFFFFF80
07FFFFFFFFFFFF80
07FFFFFFFFFFFF00
03FFFFFFFFFFFF00
01FFFFFFFFFFFE00
00FFFFFFFFFFFC00
007FFFFFFFFFF000
ENDCHAR
STARTCHAR 0066
ENCODING 102
SWIDTH 987 0
DWIDTH 59 0
BBX 58 54 0 -8
BITMAP
0000003800000000
000000FE00000000
000001FF00000000
000003FF00000000
000007FF00000000
00000FFF00000000
00001FFF00000000
00003FFE00000000
00007FFE00000000
0000FFFC00000000
0001FFFC00000000
0003FFF800000000
0007FFF800000000
000FFFF000000000
001FFFF000000000
003FFFE000000000
007FFFE000000000
00FFFFC000000000
01FFFFC000000000
03FFFFC000000000
07FFFF8000000000
0FFFFFFFFFFFFF00
1FFFFFFFFFFFFF80
3FFFFFFFFFFFFFC0
7FFFFFFFFFFFFFC0
7FFFFFFFFFFFFFC0
FFFFFFFFFFFFFFC0
FFFFFFFFFFFFFFC0
7FFFFFFFFFFFFFC0
7FFFFFFFFFFFFFC0
3FFFFFFFFFFFFFC0
1FFFFFFFFFFFFFC0
0FFFFFFFFFFFFF80
07FFFFFFFFFFFF00
03FFFF8000000000
01FFFFC000000000
00FFFFC000000000
007FFFE000000000
003FFFE000000000
001FFFF000000000
000FFFF000000000
0007FFF800000000
0003FFF800000000
0001FFFC00000000
0000FFFC00000000
00007FFE00000000
00003FFE00000000
00001FFE00000000
00000FFF00000000
000007FF00000000
000003FF00000000
000001FF00000000
000000FE00000000
0000007800000000
ENDCHAR
STARTCHAR 0067
ENCODING 103
SWIDTH 987 0
DWIDTH 59 0
BBX 58 54 0 -8
BITMAP
0000000780000000
0000000FE0000000
0000001FF0000000
0000001FF8000000
0000001FFC000000
0000001FFE000000
0000001FFF000000
0000001FFF800000
0000000FFFC00000
0000000FFFE00000
00000007FFF00000
00000007FFF80000
00000003FFFC0000
00000003FFFE0000
00000001FFFF0000
00000001FFFF8000
00000000FFFFC000
00000000FFFFE000
000000007FFFF000
000000007FFFF800
000000003FFFFC00
3FFFFFFFFFFFFE00
7FFFFFFFFFFFFF00
7FFFFFFFFFFFFF80
FFFFFFFFFFFFFFC0
FFFFFFFFFFFFFFC0
FFFFFFFFFFFFFFC0
FFFFFFFFFFFFFFC0
FFFFFFFFFFFFFFC0
FFFFFFFFFFFFFFC0
FFFFFFFFFFFFFF80
7FFFFFFFFFFFFF00
7FFFFFFFFFFFFE00
3FFFFFFFFFFFFC00
000000007FFFF800
000000007FFFF000
00000000FFFFE000
00000000FFFFC000
00000001FFFF8000
00000001FFFF0000
00000003FFFE0000
00000003FFFC0000
00000007FFF80000
00000007FFF00000
0000000FFFE00000
0000000FFFC00000
0000001FFF800000
0000001FFF000000
0000001FFE000000
0000001FFC000000
0000001FF8000000
0000001FF0000000
0000000FE0000000
0000000780000000
ENDCHAR
STARTCHAR 0068
ENCODING 104
SWIDTH 987 0
DWIDTH 59 0
BBX 57 62 1 -12
BITMAP
0000001C00000000
0000007F00000000
000000FF80000000
000001FFC0000000
000003FFE0000000
000007FFF0000000
00000FFFF8000000
00001FFFFC000000
00003FFFFE000000
00007FFFFF000000
0000FFFFFF800000
0001FFFFFFC00000
0003FFFFFFE00000
0007FFFFFFF00000
000FFFFFFFF80000
001FFFFFFFFC0000
003FFFFFFFFE0000
007FFFFFFFFF0000
00FFFFFFFFFF8000
01FFFFFFFFFFC000
03FFFFFFFFFFE000
07FFFFFFFFFFF000
0FFFFFFFFFFFF800
1FFFFFFFFFFFFC00
3FFFFFFFFFFFFE00
7FFFFFFFFFFFFF00
FFFFFBFFFFFFFF00
FFFFE3FFF3FFFF80
FFFF83FFF0FFFF80
FFFE03FFF03FFF80
FFF803FFF01FFF80
FFE003FFF007FF00
7F8003FFF000FF00
3C0003FFF0001E00
000003FFF0000000
000003FFF0000000
000003FFF0000000
000003FFF0000000
000003FFF0000000
000003FFF0000000
000003FFF0000000
000003FFF0000000
000003FFF0000000
000003FFF0000000
000003FFF0000000
000003FFF0000000
000003FFF0000000
000003FFF0000000
000003FFF0000000
000003FFF0000000
000003FFF0000000
000003FFF0000000
000003FFF0000000
000003FFF0000000
000003FFF0000000
000003FFF0000000
000003FFF0000000
000003FFF0000000
000003FFF0000000
000003FFE0000000
000001FFE0000000
000000FF80000000
ENDCHAR
STARTCHAR 0069
ENCODING 105
SWIDTH 987 0
DWIDTH 59 0
BBX 58 58 0 -10
BITMAP
0FFFFFFFFFFF8000
1FFFFFFFFFFFE000
3FFFFFFFFFFFF000
7FFFFFFFFFFFF000
7FFFFFFFFFFFF800
7FFFFFFFFFFFF800
FFFFFFFFFFFFF800
FFFFFFFFFFFFF800
FFFFFFFFFFFFF800
FFFFFFFFFFFFF000
FFFFFFFFFFFFC000
FFFFFFFFFFFF8000
FFFFFFFFFFFC0000
FFFFFFFFFFF00000
FFFFFFFFFF800000
FFFFFFFFFC000000
FFFFFFFFE0000000
FFFFFFFF00000000
FFFFFFFC00000000
FFFFFFFE00000000
FFFFFFFF00000000
FFFFFFFF80000000
FFFFFFFFC0000000
FFFFFFFFE0000000
FFFFFFFFF0000000
FFFFFFFFF8000000
FFFFFFFFFC000000
FFFFFFFFFE000000
FFFFFFFFFF000000
FFFFFFFFFF800000
FFFFFFFFFFC00000
FFFFCFFFFFE00000
FFFFC7FFFFF00000
FFFF83FFFFF80000
FFFF81FFFFFC0000
FFFF80FFFFFE0000
FFFF007FFFFF0000
FFFF003FFFFF8000
FFFF001FFFFFC000
FFFE000FFFFFE000
FFFE0007FFFFF000
FFFE0003FFFFF800
FFFC0001FFFFFC00
FFFC0000FFFFFE00
FFFC00007FFFFF00
FFF800003FFFFF80
7FF800001FFFFFC0
7FF000000FFFFFC0
7FF0000007FFFFC0
3FE0000003FFFFC0
1FE0000001FFFFC0
0FC0000000FFFF80
00000000007FFF00
00000000003FFE00
00000000001FFC00
00000000000FF800
000000000007F000
000000000003E000
ENDCHAR
STARTCHAR 006A
ENCODING 106
SWIDTH 987 0
DWIDTH 59 0
BBX 57 58 1 -10
BITMAP
00FFFFFFFFFFF800
01FFFFFFFFFFFE00
03FFFFFFFFFFFF00
07FFFFFFFFFFFF00
07FFFFFFFFFFFF80
07FFFFFFFFFFFF80
07FFFFFFFFFFFF80
07FFFFFFFFFFFF80
07FFFFFFFFFFFF80
03FFFFFFFFFFFF80
01FFFFFFFFFFFF80
007FFFFFFFFFFF80
001FFFFFFFFFFF80
0003FFFFFFFFFF80
00007FFFFFFFFF80
00000FFFFFFFFF80
000001FFFFFFFF80
0000003FFFFFFF80
0000001FFFFFFF80
0000003FFFFFFF80
0000007FFFFFFF80
000000FFFFFFFF80
000001FFFFFFFF80
000003FFFFFFFF80
000007FFFFFFFF80
00000FFFFFFFFF80
00001FFFFFFFFF80
00003FFFFFFFFF80
00007FFFFFFFFF80
0000FFFFFFFFFF80
0001FFFFFFFFFF80
0003FFFFFDFFFF80
0007FFFFF8FFFF80
000FFFFFF0FFFF80
001FFFFFE07FFF80
003FFFFFC07FFF80
007FFFFF807FFF80
00FFFFFF007FFF80
01FFFFFE003FFF80
03FFFFFC003FFF80
07FFFFF8003FFF80
0FFFFFF0001FFF80
1FFFFFE0001FFF80
3FFFFFC0001FFF80
7FFFFF80000FFF80
FFFFFF00000FFF80
FFFFFE000007FF80
FFFFFC000007FF80
FFFFF8000003FF00
FFFFF0000003FF00
FFFFE0000001FE00
7FFFC0000000F800
3FFF800000000000
1FFF000000000000
0FFE000000000000
07FC000000000000
03F8000000000000
01E0000000000000
ENDCHAR
STARTCHAR 006B
ENCODING 107
SWIDTH 987 0
DWIDTH 59 0
BBX 58 50 0 -6
BITMAP
0000000080000000
0000000040000000
0000000060000000
0000000070000000
0000000078000000
000000007C000000
000000007E000000
000000007F000000
000000007F800000
000000007FC00000
000000007FE00000
000000007FF00000
000001FFFFF80000
00003FFFFFFC0000
0001FFFFFFFE0000
0007FFFFFFFF0000
001FFFFFFFFF8000
007FFFFFFFFFC000
00FFFFFFFFFFE000
01FFFFFFFFFFF000
03FFFFFFFFFFF800
07FFFFFFFFFFFC00
07FFFFFFFFFFFE00
0FFFFFFFFFFFFF00
0FFFFFFFFFFFFF80
1FFFFFFFFFFFFFC0
1FFFFFFFFFFFFF80
3FFFFC0FFFFFFE00
3FFFC007FFFFF800
3FFE0007FFFFE000
7FFC0007FFFFC000
7FF00007FFFF0000
7FE00007FFFC0000
7FC0000FFFF00000
7F80000FFFE00000
7F00000FFF800000
7E00000FFE000000
7E00000FFC000000
FC00000FF0000000
F800001FC0000000
F800001F00000000
F000001E00000000
F000001800000000
6000002000000000
6000000000000000
6000000000000000
4000000000000000
4000000000000000
4000000000000000
4000000000000000
ENDCHAR
STARTCHAR 006C
ENCODING 108
SWIDTH 1071 0
DWIDTH 64 0
BBX 64 56 0 -9
BITMAP
0000000800000000
0000000800000000
0000001800000000
0000003800000000
0000007800000000
000000F800000000
000001F800000000
000003F800000000
000007F800000000
00000FF800000000
00001FF800000000
00003FF800000000
00007FF800000000
0000FFF800000000
0001FFFFFF800000
0003FFFFFFF80000
0007FFFFFFFF0000
000FFFFFFFFFE000
001FFFFFFFFFF000
003FFFFFFFFFFC00
007FFFFFFFFFFE00
00FFFFFFFFFFFF00
01FFFFFFFFFFFF80
03FFFFFFFFFFFFC0
07FFFFFFFFFFFFE0
0FFFFFFFFFFFFFE0
1FFFFFFFFFFFFFF0
3FFFFFFFFFFFFFF8
FFFFFFFFFFFFFFF8
3FFFFFFFFFFFFFF8
0FFFFFFFFFFFFFFC
07FFFFFF000FFFFC
01FFFFFF0001FFFE
007FFFFF00007FFE
003FFFFF80003FFE
000FFFFF80000FFE
0003FFFF800007FE
0000FFFF800003FF
00007FFF800001FF
00001FFFC00000FF
000007FFC00000FF
000001FFC000007F
000000FFC000003F
0000003FC000003F
0000000FC000001F
00000007E000001F
00000001E000000F
000000006000000F
0000000020000007
0000000000000007
0000000000000003
0000000000000003
0000000000000003
0000000000000001
0000000000000001
0000000000000001
ENDCHAR
STARTCHAR 006D
ENCODING 109
SWIDTH 987 0
DWIDTH 59 0
BBX 51 62 4 -12
BITMAP
0001FFFFE00000
0001FFFFE00000
0001FFFFE00000
0001FFFFE00000
0001FFFFE00000
0001FFFFE00000
0001FFFFE00000
0001FFFFE00000
0001FFFFE00000
0001FFFFE00000
0001FFFFE00000
0001FFFFE00000
0001FFFFE00000
0001FFFFE00000
0001FFFFE00000
0001FFFFE00000
0001FFFFE00000
0001FFFFE00000
0001FFFFE00000
0001FFFFE00000
0001FFFFE00000
0001FFFFE00000
0001FFFFE00000
0001FFFFE00000
0001FFFFE00000
0001FFFFE00000
0001FFFFE00000
0001FFFFE00000
0001FFFFE00000
0001FFFFE00000
0001FFFFE00000
0001FFFFE00000
0001FFFFE00000
0001FFFFE00000
FFFFFFFFFFFFE0
7FFFFFFFFFFFC0
3FFFFFFFFFFF80
1FFFFFFFFFFF00
0FFFFFFFFFFE00
07FFFFFFFFFC00
03FFFFFFFFF800
01FFFFFFFFF000
01FFFFFFFFE000
00FFFFFFFFC000
007FFFFFFF8000
003FFFFFFF0000
001FFFFFFE0000
000FFFFFFE0000
0007FFFFFC0000
0003FFFFF80000
0001FFFFF00000
0000FFFFE00000
00007FFFC00000
00003FFF800000
00001FFF000000
00001FFE000000
00000FFC000000
000007F8000000
000003F0000000
000001E0000000
000000E0000000
00000040000000
ENDCHAR
STARTCHAR 006E
ENCODING 110
SWIDTH 987 0
DWIDTH 59 0
BBX 58 48 0 -5
BITMAP
0000004000000000
0000004000000000
000001C000000000
000003C000000000
000007C000000000
00000FC000000000
00001FC000000000
00003FC000000000
00007FC000000000
0000FFC000000000
0001FFC000000000
0003FFC000000000
0007FFC000000000
000FFFC000000000
001FFFFFFFFFFFC0
007FFFFFFFFFFFC0
00FFFFFFFFFFFFC0
01FFFFFFFFFFFFC0
03FFFFFFFFFFFFC0
07FFFFFFFFFFFFC0
0FFFFFFFFFFFFFC0
1FFFFFFFFFFFFFC0
3FFFFFFFFFFFFFC0
FFFFFFFFFFFFFFC0
7FFFFFFFFFFFFFC0
3FFFFFFFFFFFFFC0
1FFFFFFFFFFFFFC0
0FFFFFFFFFFFFFC0
07FFFFFFFFFFFFC0
03FFFFFFFFFFFFC0
00FFFFFFFFFFFFC0
007FFFFFFFFFFFC0
003FFFFFFFFFFFC0
001FFFC000000000
000FFFC000000000
0007FFC000000000
0003FFC000000000
0001FFC000000000
0000FFC000000000
00007FC000000000
00003FC000000000
00001FC000000000
000007C000000000
000003C000000000
000001C000000000
000000C000000000
0000004000000000
0000002000000000
ENDCHAR
STARTCHAR 006F
ENCODING 111
SWIDTH 987 0
DWIDTH 59 0
BBX 58 48 0 -5
BITMAP
0000000080000000
00000000C0000000
00000000E0000000
00000000F0000000
00000000F8000000
00000000FC000000
00000000FE000000
00000000FF000000
00000000FF800000
00000000FFC00000
00000000FFF00000
00000000FFF80000
00000000FFFC0000
00000000FFFE0000
FFFFFFFFFFFF0000
FFFFFFFFFFFF8000
FFFFFFFFFFFFC000
FFFFFFFFFFFFE000
FFFFFFFFFFFFF000
FFFFFFFFFFFFF800
FFFFFFFFFFFFFC00
FFFFFFFFFFFFFE00
FFFFFFFFFFFFFF80
FFFFFFFFFFFFFFC0
FFFFFFFFFFFFFF80
FFFFFFFFFFFFFF00
FFFFFFFFFFFFFE00
FFFFFFFFFFFFFC00
FFFFFFFFFFFFF800
FFFFFFFFFFFFF000
FFFFFFFFFFFFE000
FFFFFFFFFFFFC000
FFFFFFFFFFFF8000
00000000FFFF0000
00000000FFFE0000
00000000FFF80000
00000000FFF00000
00000000FFE00000
00000000FFC00000
00000000FF800000
00000000FF000000
00000000FE000000
00000000FC000000
00000000F8000000
00000000F0000000
00000000E0000000
00000000C0000000
0000000080000000
ENDCHAR
STARTCHAR 0070
ENCODING 112
SWIDTH 987 0
DWIDTH 59 0
BBX 51 62 4 -12
BITMAP
00000040000000
000000C0000000
000001E0000000
000003F0000000
000007F8000000
000007FC000000
00000FFE000000
00001FFF000000
00003FFF800000
00007FFFC00000
0000FFFFE00000
0001FFFFF00000
0003FFFFF80000
0007FFFFFC0000
000FFFFFFC0000
001FFFFFFE0000
003FFFFFFF0000
007FFFFFFF8000
007FFFFFFFC000
00FFFFFFFFE000
01FFFFFFFFF000
03FFFFFFFFF800
07FFFFFFFFFC00
0FFFFFFFFFFE00
1FFFFFFFFFFF00
3FFFFFFFFFFF80
7FFFFFFFFFFFC0
FFFFFFFFFFFFE0
0001FFFFE00000
0001FFFFE00000
0001FFFFE00000
0001FFFFE00000
0001FFFFE00000
0001FFFFE00000
0001FFFFE00000
0001FFFFE00000
0001FFFFE00000
0001FFFFE00000
0001FFFFE00000
0001FFFFE00000
0001FFFFE00000
0001FFFFE00000
0001FFFFE00000
0001FFFFE00000
0001FFFFE00000
0001FFFFE00000
0001FFFFE00000
0001FFFFE00000
0001FFFFE00000
0001FFFFE00000
0001FFFFE00000
0001FFFFE00000
0001FFFFE00000
0001FFFFE00000
0001FFFFE00000
0001FFFFE00000
0001FFFFE00000
0001FFFFE00000
0001FFFFE00000
0001FFFFE00000
0001FFFFE00000
0001FFFFE00000
ENDCHAR
STARTCHAR 0071
ENCODING 113
SWIDTH 987 0
DWIDTH 59 0
BBX 53 62 3 -12
BITMAP
00000000080000
00000000180000
00000000180000
000000003C0000
000000003E0000
000000007E0000
00000000FF0000
00000000FF0000
00000001FF8000
00000001FF8000
00000003FFC000
00000003FFE000
00000007FFE000
0000000FFFF000
0000000FFFF000
0000001FFFF800
0000001FFFF800
FFC0003FFFFC00
FFC0003FFFFE00
FFC0007FFFFE00
FFC000FFFFFF00
FFC000FFFFFF00
FFC001FFFFFF80
FFC001FFFFFF80
FFC003FFFFFFC0
FFC003FFFFFFE0
FFC007FFFFFFE0
FFC00FFFFFFFF0
FFC00FFFFFFFF8
FFC00001FF8000
FFC00001FF8000
FFC00001FF8000
FFC00001FF8000
FFC00001FF8000
FFC00001FF8000
FFC00001FF8000
FFC00001FF8000
FFC00001FF8000
FFC00001FF8000
FFC00001FF8000
FFC00001FF8000
FFC00001FF8000
FFC00001FF8000
FFC00001FF8000
FFC00001FF8000
7FE00003FF0000
7FE00003FF0000
7FF00007FF0000
7FF8000FFE0000
3FFC001FFE0000
3FFE003FFE0000
1FFF81FFFC0000
1FFFFFFFF80000
0FFFFFFFF80000
07FFFFFFF00000
03FFFFFFE00000
01FFFFFFC00000
00FFFFFF800000
007FFFFE000000
001FFFFC000000
0007FFE0000000
00007D00000000
ENDCHAR
STARTCHAR 0072
ENCODING 114
SWIDTH 987 0
DWIDTH 59 0
BBX 58 50 0 -6
BITMAP
0000001000000000
0000006000000000
000001E000000000
000003E000000000
00000FE000000000
00003FE000000000
00007FE000000000
0001FFE000000000
0007FFE000000000
001FFFE000000000
003FFFE000000000
00FFFFFFFF000000
03FFFFFFFFF80000
0FFFFFFFFFFF0000
1FFFFFFFFFFF8000
FFFFFFFFFFFFE000
3FFFFFFFFFFFF000
1FFFFFFFFFFFF800
07FFFFFFFFFFFC00
01FFFFFFFFFFFE00
00FFFFFFFFFFFE00
003FFFE0001FFF00
000FFFE00007FF00
0003FFE00003FF80
0001FFE00001FF80
00007FE00000FF80
00001FE00000FFC0
000007E00000FFC0
000003E000007FC0
000000E000007FC0
0000002000007FC0
0000000000007FC0
0000000000007FC0
000000000000FFC0
000000000000FFC0
000000000000FF80
000000000001FF80
000000000003FF80
000000000007FF00
00000000001FFF00
0000FFFFFFFFFE00
0000FFFFFFFFFE00
0000FFFFFFFFFC00
0000FFFFFFFFF800
0000FFFFFFFFF000
0000FFFFFFFFE000
0000FFFFFFFF8000
0000FFFFFFFF0000
0000FFFFFFF80000
0000FFFFFF000000
ENDCHAR
STARTCHAR 0073
ENCODING 115
SWIDTH 987 0
DWIDTH 59 0
BBX 58 45 0 -4
BITMAP
000007FFFC000000
00007FFFFFC00000
0003FFFFFFF00000
000FFFFFFFFE0000
003FFFFFFFFF0000
00FFFFFFFFFFC000
01FFFFFFFFFFE000
03FFFFFFFFFFF000
07FFFFFFFFFFFC00
0FFFFFFFFFFFFC00
1FFFFFFFFFFFFE00
1FFFFFFFFFFFFF00
3FFFFFFFFFFFFF00
7FFFFFFFFFFFFF80
7FFFFFFFFFFFFF80
7FFFFFFFFFFFFFC0
7FFFFFFFFFFFFFC0
FFFFFFFFFFFFFFC0
FFFFFFFFFFFFFFC0
FFFFFFFFFFFFFFC0
FFFFFFFFFFFFFFC0
7FFFFFFFFFFFFFC0
7FFFFFFFFFFFFFC0
7FFFFFFFFFFFFF80
3FFFFFFFFFFFFF80
3FFFFFFFFFFFFF00
1FFFFFFFFFFFFF00
1FFFFFFFFFFFFE00
0FFFFFFFFFFFFC00
07FFFFFFFFFFF800
03FFFFFFFFFFF000
01FFFFFFFFFFE000
00FFFFFFFFFF8000
003FFFFFFFFF0000
000FFFFFFFFC0000
0003FFFFFFE00000
00007FFFFF000000
000007FFF0000000
000007F800000000
000007F000000000
00000FE000000000
00000FC000000000
00001F0000000000
00007C0000000000
0001800000000000
ENDCHAR
STARTCHAR 0074
ENCODING 116
SWIDTH 987 0
DWIDTH 59 0
BBX 58 48 0 -5
BITMAP
3FFFFFFFFFFFFF80
7FFFFFFFFFFFFFC0
7FFFFFFFFFFFFFC0
FFFFFFFFFFFFFFC0
FFFFFFFFFFFFFFC0
FFFFFFFFFFFFFFC0
FFFFFFFFFFFFFFC0
FFFFFFFFFFFFFFC0
FFFFFFFFFFFFFFC0
FFFFFFFFFFFFFFC0
FFFFFFFFFFFFFFC0
FFFFFFFFFFFFFFC0
FFFFFFFFFFFFFFC0
FFFFFFFFFFFFFFC0
FFFFFFFFFFFFFFC0
FFFFFFFFFFFFFFC0
FFFFFFFFFFFFFFC0
FFFFFFFFFFFFFFC0
FFFFFFFFFFFFFFC0
FFFFFFFFFFFFFFC0
FFFFFFFFFFFFFFC0
FFFFFFFFFFFFFFC0
FFFFFFFFFFFFFFC0
FFFFFFFFFFFFFFC0
FFFFFFFFFFFFFFC0
FFFFFFFFFFFFFFC0
FFFFFFFFFFFFFFC0
FFFFFFFFFFFFFFC0
FFFFFFFFFFFFFFC0
FFFFFFFFFFFFFFC0
FFFFFFFFFFFFFFC0
FFFFFFFFFFFFFFC0
FFFFFFFFFFFFFFC0
FFFFFFFFFFFFFFC0
7FFFFFFFFFFFFFC0
7FFFFFFFFFFFFF80
3FFFFFFFFFFFFF00
0000007F80000000
000000FE00000000
000000FC00000000
000001F800000000
000001F000000000
000003E000000000
000003C000000000
0000030000000000
0000060000000000
0000040000000000
0000080000000000
ENDCHAR
STARTCHAR 0075
ENCODING 117
SWIDTH 987 0
DWIDTH 59 0
BBX 58 46 0 -4
BITMAP
0000007F00000000
00001FFFFE000000
0000FFFFFFE00000
0007FFFFFFF80000
001FFFFFFFFE0000
007FFFFFFFFF8000
00FFFFFFFFFFC000
01FFFFFFFFFFF000
07FFFFFFFFFFF800
0FFFFFFFFFFFFC00
0FFFFFFFFFFFFE00
1FFFFFFFFFFFFE00
3FFFFFFFFFFFFF00
3FFFFFFFFFFFFF80
7FFFFFFFFFFFFF80
7FFFFFFFFFFFFF80
7FFFFFFFFFFFFFC0
FFFFFFFFFFFFFFC0
FFFFFFFFFFFFFFC0
FFFFFFFFFFFFFFC0
FFFFFFFFFFFFFFC0
FFFFFFFFFFFFFFC0
FFFFFFFFFFFFFFC0
7FFFFFFFFFFFFFC0
7FFFFFFFFFFFFF80
3FFFFFFFFFFFFF80
3FFFFFFFFFFFFF00
1FFFFFFFFFFFFF00
1FFFFFFFFFFFFE00
0FFFFFFFFFFFFC00
07FFFFFFFFFFF800
03FFFFFFFFFFF000
00FFFFFFFFFFE000
007FFFFFFFFFC000
001FFFFFFFFF0000
0007FFFFFFFC0000
0001FFFFFFF00000
00001FFFFF800000
000001FFFC000000
00000003FC000000
00000001FC000000
00000000FC000000
000000007E000000
000000003F000000
0000000007800000
0000000000600000
ENDCHAR
STARTCHAR 0076
ENCODING 118
SWIDTH 987 0
DWIDTH 59 0
BBX 58 48 0 -5
BITMAP
3FFFFFFFFFFFFF80
7FFFFFFFFFFFFF80
7FFFFFFFFFFFFFC0
FFFFFFFFFFFFFFC0
FFFFFFFFFFFFFFC0
FFFFFFFFFFFFFFC0
FFFFFFFFFFFFFFC0
FFFFFFFFFFFFFFC0
FFFFFFFFFFFFFFC0
FFFFFFFFFFFFFFC0
FFFFFFFFFFFFFFC0
FFFFFFFFFFFFFFC0
FFFFFFFFFFFFFFC0
FFFFFFFFFFFFFFC0
FFFFFFFFFFFFFFC0
FFFFFFFFFFFFFFC0
FFFFFFFFFFFFFFC0
FFFFFFFFFFFFFFC0
FFFFFFFFFFFFFFC0
FFFFFFFFFFFFFFC0
FFFFFFFFFFFFFFC0
FFFFFFFFFFFFFFC0
FFFFFFFFFFFFFFC0
FFFFFFFFFFFFFFC0
FFFFFFFFFFFFFFC0
FFFFFFFFFFFFFFC0
FFFFFFFFFFFFFFC0
FFFFFFFFFFFFFFC0
FFFFFFFFFFFFFFC0
FFFFFFFFFFFFFFC0
FFFFFFFFFFFFFFC0
FFFFFFFFFFFFFFC0
FFFFFFFFFFFFFFC0
FFFFFFFFFFFFFFC0
7FFFFFFFFFFFFFC0
7FFFFFFFFFFFFF80
3FFFFFFFFFFFFF00
0000003FC0000000
0000001FC0000000
0000000FE0000000
00000007E0000000
00000003F0000000
00000000F0000000
0000000070000000
0000000038000000
0000000018000000
000000000C000000
0000000006000000
ENDCHAR
STARTCHAR 0077
ENCODING 119
SWIDTH 987 0
DWIDTH 59 0
BBX 58 58 0 -10
BITMAP
0000001E00000000
0000003F80000000
0000007FC0000000
000000FFC0000000
000000FFE0000000
000000FFE0000000
000000FFE0000000
003E00FFE01F0000
007F83FFE03F8000
00FFDFFFF87FC000
00FFFFFFFEFFE000
01FFFFFFFFFFE000
01FFFFFFFFFFE000
01FFFFFFFFFFE000
00FFFFFFFFFFE000
00FFFFFFFFFFC000
007FFFFFFFFFC000
003FFFFFFFFF8000
003FFFFFFFFF0000
007FFFFFFFFE0000
007FFFC07FFE0000
007FFF001FFF0000
00FFFE000FFF0000
07FFFC0007FFF800
1FFFF80007FFFF00
3FFFF80003FFFF80
7FFFF00003FFFFC0
7FFFF00003FFFFC0
FFFFF00001FFFFC0
FFFFF00001FFFFC0
7FFFF00003FFFFC0
7FFFF00003FFFFC0
3FFFF80003FFFF80
1FFFF80007FFFF00
07FFFC0007FFFC00
007FFE000FFE0000
003FFF001FFE0000
003FFF807FFC0000
001FFFFFFFFE0000
001FFFFFFFFF0000
003FFFFFFFFF8000
007FFFFFFFFFC000
00FFFFFFFFFFC000
00FFFFFFFFFFE000
01FFFFFFFFFFE000
01FFFFFFFFFFE000
01FFFFFFF9FFE000
00FFE3FFE0FFE000
00FFC0FFE07FC000
007F80FFE03FC000
003E00FFE01F0000
000000FFE0000000
000000FFE0000000
000000FFE0000000
000000FFC0000000
0000007FC0000000
0000003F80000000
0000001E00000000
ENDCHAR
STARTCHAR 0078
ENCODING 120
SWIDTH 987 0
DWIDTH 59 0
BBX 58 48 0 -4
BITMAP
0007000000000000
078F800000000000
07CF800000000000
07FF800000000000
07FFDC0000000000
03FFFE0000000000
23FFFE0000000000
7FE7FC0000000000
FF81F80000000000
FF81F80070000000
7F00F801F8000000
0F00FC01FC0F8000
0F00FE01FC1FC000
1F81FF01FE1FC000
3FC3FF01FFFFE000
7FFFFE01FFFFC000
7FFFE007FFFFC000
3DFFE3EFFFFF8000
00FFE7FFFFFF8000
01FFE7FFFFFF8000
01F1E7FFFFFFC600
01F0C7FFFFFFFF80
00E007FFF07FFFC0
000003FFE01FFFC0
000000FFC00FFFC0
000000FF800FFFC0
000000FF0007FF80
000001FF0007FF00
000001FF0007FC00
000007FF0007F000
00000FFF8007F000
00001FFF800FF000
00001FFFC00FF800
00001FFFE01FFE00
00000FFFF07FFF00
00000FFFFFFFFF00
0000023FFFFFFF00
0000001FFFFFFF00
0000000FFFFEFF00
0000000FFFFC3E00
0000001FFFFC0000
0000001FFFFC0000
0000001FE3FC0000
0000001FC1FE0000
0000001FC1FE0000
0000000F81FC0000
0000000000FC0000
0000000000780000
ENDCHAR
STARTCHAR 0079
ENCODING 121
SWIDTH 987 0
DWIDTH 59 0
BBX 58 52 0 -7
BITMAP
000007C000000000
00003FFC00000000
0000FFFF001FE000
0003FFFF807FF800
0007FFFFE0FFFE00
000FFFFFF0FFFF00
001FFF0009FFC000
003FFE0001FF0000
003FFE0001FF0000
007FFE0001FF83C0
00FFFE0003FFFF80
00FFFF0003FFFF00
01FFFF8003FFFF00
03FFFFC007FFFE00
0FFFFFE007FFFC00
3FF87FF00FFFF800
7FF03FF80FFFE000
FFE00FFC1FFF8000
7FE007FE3FFF8000
3FE003FF7FFF8000
1FE001FFFFFFC000
0FE0007FFFF00000
03C0003FFFC00000
0080001FFF000000
0000001FFE000000
0000003FFC000000
0000007FFE000000
000000FFFF000000
000001FFFF800000
000007FFFFC00000
00000FFFFFE00000
00001FFE3FF00000
00003FFC1FF80000
0000FFF81FFC0000
0001FFF00FFE0000
0003FFE007FF8000
0007FFC003FFC000
001FFF8001FFE000
003FFF0000FFF000
007FFE00007FF800
00FFFC00003FFC00
01FFF800003FFE00
07FFF000001FFF00
07FFE000000FFF80
0FFFC0000007FFC0
0FFF80000003FF80
0FFF00000001FF00
07FE00000000FE00
07FC000000007C00
03F8000000007800
0040000000003000
0000000000001000
ENDCHAR
STARTCHAR 007A
ENCODING 122
SWIDTH 987 0
DWIDTH 59 0
BBX 58 58 0 -10
BITMAP
0000000010000000
0000000030000000
0000000060000000
0000000060000000
00000000E0000000
00000001E0000000
00000003E0000000
00000007C0000000
0000000FC0000000
0000001FC0000000
0000001FC0000000
0000001F80000000
0000003F80000000
0000003F80000000
0000003F80000000
0000003F80000000
0000007F00000000
0000007F00000000
0000007F00000000
0000007F00000000
0000007E00000000
000000FE00000000
000000FE00000040
000000FE00000F80
000000FE0000FF00
007E01FC001FFE00
03FFC1FC03FFFC00
07FFE1FC3FFFF800
1FFFF1FFFFFFF000
3FFFFBFFFFFFE000
3FEFFBFFFFFFC000
7F03FFFFFFFE0000
7E01FFFFFFE00000
7E01FFFFFC000000
FE03FFFFC0000000
FE0FFFFC00000000
7FFFFFF000000000
7FFFF7F800000000
7FFFEFFC00000000
3FFFDFFE00000000
1FFF3FFF00000000
07FC3FFF00000000
00007FFF00000000
00007F3F80000000
0000FE1F80000000
0000FE1F80000000
0000FC0F80000000
0000FC1F80000000
0000FC1F80000000
0000FC3F00000000
0000FE3F00000000
0000FFFF00000000
0000FFFE00000000
00007FFC00000000
00007FFC00000000
00003FF800000000
00001FE000000000
0000038000000000
ENDCHAR
STARTCHAR 007B
ENCODING 123
SWIDTH 987 0
DWIDTH 59 0
BBX 58 55 0 -8
BITMAP
0000000003FF8000
0000000001FF0000
0000000001FC0000
0000000001FE0000
0000000000FF0000
0000000000FF8000
0000000000FFC000
00000000006FE000
000000000067F000
000000000043F800
000000000041F800
000000000000FC00
0000000000007E00
0000000000007E00
0000000000003F00
0000000000003F00
0000000000001F00
0000000000001F80
0000000000000F80
0000000000000F80
0000000000000FC0
00000000000007C0
00000000000007C0
00000000000007C0
00000000000007C0
00000000000007C0
F8000000000007C0
F8000000000007C0
FC000000000007C0
7C000000000007C0
7C000000000007C0
7C00000000000FC0
7C00000000000F80
7E00000000000F80
3E00000000001F80
3E00000000001F80
3F00000000001F00
1F00000000003F00
1F80000000003E00
0FC0000000007E00
0FC000000000FC00
07E000000001FC00
07F000000003F800
03F800000007F000
01FC0000000FF000
00FE0000001FE000
007F8000007FC000
003FE00000FF8000
001FF80007FF0000
000FFF807FFC0000
0007FFFFFFF80000
0001FFFFFFE00000
00007FFFFF800000
00000FFFFE000000
000000FFE0000000
ENDCHAR
STARTCHAR 007C
ENCODING 124
SWIDTH 987 0
DWIDTH 59 0
BBX 58 54 0 -8
BITMAP
007FF00000000000
000FE00000000000
000FE00000000000
003FE00000000000
007FC00000000000
00FFC00000000000
01FEC00000000000
01FC800000000000
03F8800000000000
07F0800000000000
07E0000000000000
0FC0000000000000
1F80000000000000
1F80000000000000
1F00000000000000
3F00000000000000
3E00000000000000
7E00000000000000
7C00000000000000
7C00000000000000
7C00000000000000
7C00000000000000
7C00000000000000
FC00000000000000
F800000000000000
F8000000000007C0
F8000000000007C0
FC000000000007C0
7C000000000007C0
7C000000000007C0
7C00000000000FC0
7C00000000000F80
7E00000000000F80
3E00000000000F80
3E00000000001F80
3F00000000001F00
1F00000000003F00
1F80000000003E00
1F80000000007E00
0FC000000000FC00
07E000000000FC00
07F000000001F800
03F800000003F000
01FC00000007F000
01FE0000001FE000
00FF8000003FC000
007FE00000FF8000
001FF80003FF0000
000FFF003FFE0000
0007FFFFFFF80000
0001FFFFFFF00000
00007FFFFFC00000
00001FFFFE000000
000001FFF0000000
ENDCHAR
STARTCHAR 007D
ENCODING 125
SWIDTH 502 0
DWIDTH 30 0
BBX 0 0 0 0
BITMAP
ENDCHAR
STARTCHAR 007E
ENCODING 126
SWIDTH 502 0
DWIDTH 30 0
BBX 0 0 0 0
BITMAP
ENDCHAR
STARTCHAR 00A0
ENCODING 160
SWIDTH 251 0
DWIDTH 15 0
BBX 0 0 0 0
BITMAP
ENDCHAR
STARTCHAR 00A1
ENCODING 161
SWIDTH 334 0
DWIDTH 20 0
BBX 0 0 0 0
BITMAP
ENDCHAR
STARTCHAR 00A2
ENCODING 162
SWIDTH 552 0
DWIDTH 33 0
BBX 0 0 0 0
BITMAP
ENDCHAR
STARTCHAR 00A3
ENCODING 163
SWIDTH 502 0
DWIDTH 30 0
BBX 0 0 0 0
BITMAP
ENDCHAR
STARTCHAR 00A4
ENCODING 164
SWIDTH 502 0
DWIDTH 30 0
BBX 0 0 0 0
BITMAP
ENDCHAR
STARTCHAR 00A5
ENCODING 165
SWIDTH 619 0
DWIDTH 37 0
BBX 0 0 0 0
BITMAP
ENDCHAR
STARTCHAR 00A6
ENCODING 166
SWIDTH 502 0
DWIDTH 30 0
BBX 0 0 0 0
BITMAP
ENDCHAR
STARTCHAR 00A7
ENCODING 167
SWIDTH 502 0
DWIDTH 30 0
BBX 0 0 0 0
BITMAP
ENDCHAR
STARTCHAR 00A8
ENCODING 168
SWIDTH 502 0
DWIDTH 30 0
BBX 0 0 0 0
BITMAP
ENDCHAR
STARTCHAR 00A9
ENCODING 169
SWIDTH 820 0
DWIDTH 49 0
BBX 0 0 0 0
BITMAP
ENDCHAR
STARTCHAR 00AA
ENCODING 170
SWIDTH 318 0
DWIDTH 19 0
BBX 0 0 0 0
BITMAP
ENDCHAR
STARTCHAR 00AB
ENCODING 171
SWIDTH 468 0
DWIDTH 28 0
BBX 0 0 0 0
BITMAP
ENDCHAR
STARTCHAR 00AC
ENCODING 172
SWIDTH 502 0
DWIDTH 30 0
BBX 0 0 0 0
BITMAP
ENDCHAR
STARTCHAR 00AD
ENCODING 173
SWIDTH 987 0
DWIDTH 59 0
BBX 58 58 0 -10
BITMAP
000000FFC0000000
00000FFFFC000000
00003FFFFF800000
0000FFFFFFE00000
0003FE001FF80000
000FF00003FC0000
001FC000007E0000
003F0000003F8000
007E0000000FC000
00F800000007E000
01F800000003F000
03FC00000301F000
07DE00000700F800
078F00000F007C00
0F8780001F003C00
0F03C0003F001E00
1E01E0003F001E00
1E00F0007F000F00
3C007800FF000F00
3C003C01FF000780
3C000203FF000780
78000007FF000780
78003FFFFF000380
78003FFFFF0003C0
70003FFFFF0003C0
70003FFFFF0003C0
70003FFFFF0003C0
F0003FFFFF0003C0
F0003FFFFF0003C0
F0003FFFFF0003C0
F0003FFFFF0003C0
70003FFFFF0003C0
70003FFFFF0003C0
78003FFFFF0003C0
78003FFFFF0003C0
78003FFFFF000780
78000007FF000780
3C000003FF000780
3C000001FF000F00
3C000000FF000F00
1E0000007F200F00
1F0000003F301E00
0F0000001F383E00
0F8000000F3C3C00
07C00000071E7C00
03C00000070FF800
03E000000207F000
01F000000003E000
00FC00000007C000
007E0000000F8000
003F0000003F0000
001FC00000FE0000
0007F80003FC0000
0003FF003FF00000
0000FFFFFFE00000
00003FFFFF000000
000007FFFC000000
0000003F80000000
ENDCHAR
STARTCHAR 00AE
ENCODING 174
SWIDTH 820 0
DWIDTH 49 0
BBX 0 0 0 0
BITMAP
ENDCHAR
STARTCHAR 00AF
ENCODING 175
SWIDTH 334 0
DWIDTH 20 0
BBX 0 0 0 0
BITMAP
ENDCHAR
STARTCHAR 00B0
ENCODING 176
SWIDTH 334 0
DWIDTH 20 0
BBX 0 0 0 0
BITMAP
ENDCHAR
STARTCHAR 00B1
ENCODING 177
SWIDTH 502 0
DWIDTH 30 0
BBX 0 0 0 0
BITMAP
ENDCHAR
STARTCHAR 00B2
ENCODING 178
SWIDTH 502 0
DWIDTH 30 0
BBX 0 0 0 0
BITMAP
ENDCHAR
STARTCHAR 00B3
ENCODING 179
SWIDTH 502 0
DWIDTH 30 0
BBX 0 0 0 0
BITMAP
ENDCHAR
STARTCHAR 00B4
ENCODING 180
SWIDTH 502 0
DWIDTH 30 0
BBX 0 0 0 0
BITMAP
ENDCHAR
STARTCHAR 00B5
ENCODING 181
SWIDTH 586 0
DWIDTH 35 0
BBX 0 0 0 0
BITMAP
ENDCHAR
STARTCHAR 00B6
ENCODING 182
SWIDTH 502 0
DWIDTH 30 0
BBX 0 0 0 0
BITMAP
ENDCHAR
STARTCHAR 00B7
ENCODING 183
SWIDTH 251 0
DWIDTH 15 0
BBX 0 0 0 0
BITMAP
ENDCHAR
STARTCHAR 00B8
ENCODING 184
SWIDTH 502 0
DWIDTH 30 0
BBX 0 0 0 0
BITMAP
ENDCHAR
STARTCHAR 00B9
ENCODING 185
SWIDTH 502 0
DWIDTH 30 0
BBX 0 0 0 0
BITMAP
ENDCHAR
STARTCHAR 00BA
ENCODING 186
SWIDTH 351 0
DWIDTH 21 0
BBX 0 0 0 0
BITMAP
ENDCHAR
STARTCHAR 00BB
ENCODING 187
SWIDTH 468 0
DWIDTH 28 0
BBX 0 0 0 0
BITMAP
ENDCHAR
STARTCHAR 00BC
ENCODING 188
SWIDTH 837 0
DWIDTH 50 0
BBX 0 0 0 0
BITMAP
ENDCHAR
STARTCHAR 00BD
ENCODING 189
SWIDTH 971 0
DWIDTH 58 0
BBX 0 0 0 0
BITMAP
ENDCHAR
STARTCHAR 00BE
ENCODING 190
SWIDTH 837 0
DWIDTH 50 0
BBX 0 0 0 0
BITMAP
ENDCHAR
STARTCHAR 00BF
ENCODING 191
SWIDTH 368 0
DWIDTH 22 0
BBX 0 0 0 0
BITMAP
ENDCHAR
STARTCHAR 00C0
ENCODING 192
SWIDTH 753 0
DWIDTH 45 0
BBX 0 0 0 0
BITMAP
ENDCHAR
STARTCHAR 00C1
ENCODING 193
SWIDTH 753 0
DWIDTH 45 0
BBX 0 0 0 0
BITMAP
ENDCHAR
STARTCHAR 00C2
ENCODING 194
SWIDTH 753 0
DWIDTH 45 0
BBX 0 0 0 0
BITMAP
ENDCHAR
STARTCHAR 00C3
ENCODING 195
SWIDTH 753 0
DWIDTH 45 0
BBX 0 0 0 0
BITMAP
ENDCHAR
STARTCHAR 00C4
ENCODING 196
SWIDTH 753 0
DWIDTH 45 0
BBX 0 0 0 0
BITMAP
ENDCHAR
STARTCHAR 00C5
ENCODING 197
SWIDTH 753 0
DWIDTH 45 0
BBX 0 0 0 0
BITMAP
ENDCHAR
STARTCHAR 00C6
ENCODING 198
SWIDTH 1038 0
DWIDTH 62 0
BBX 0 0 0 0
BITMAP
ENDCHAR
STARTCHAR 00C7
ENCODING 199
SWIDTH 686 0
DWIDTH 41 0
BBX 0 0 0 0
BITMAP
ENDCHAR
STARTCHAR 00C8
ENCODING 200
SWIDTH 569 0
DWIDTH 34 0
BBX 0 0 0 0
BITMAP
ENDCHAR
STARTCHAR 00C9
ENCODING 201
SWIDTH 569 0
DWIDTH 34 0
BBX 0 0 0 0
BITMAP
ENDCHAR
STARTCHAR 00CA
ENCODING 202
SWIDTH 569 0
DWIDTH 34 0
BBX 0 0 0 0
BITMAP
ENDCHAR
STARTCHAR 00CB
ENCODING 203
SWIDTH 569 0
DWIDTH 34 0
BBX 0 0 0 0
BITMAP
ENDCHAR
STARTCHAR 00CC
ENCODING 204
SWIDTH 318 0
DWIDTH 19 0
BBX 0 0 0 0
BITMAP
ENDCHAR
STARTCHAR 00CD
ENCODING 205
SWIDTH 318 0
DWIDTH 19 0
BBX 0 0 0 0
BITMAP
ENDCHAR
STARTCHAR 00CE
ENCODING 206
SWIDTH 318 0
DWIDTH 19 0
BBX 0 0 0 0
BITMAP
ENDCHAR
STARTCHAR 00CF
ENCODING 207
SWIDTH 318 0
DWIDTH 19 0
BBX 0 0 0 0
BITMAP
ENDCHAR
STARTCHAR 00D0
ENCODING 208
SWIDTH 736 0
DWIDTH 44 0
BBX 0 0 0 0
BITMAP
ENDCHAR
STARTCHAR 00D1
ENCODING 209
SWIDTH 770 0
DWIDTH 46 0
BBX 0 0 0 0
BITMAP
ENDCHAR
STARTCHAR 00D2
ENCODING 210
SWIDTH 786 0
DWIDTH 47 0
BBX 0 0 0 0
BITMAP
ENDCHAR
STARTCHAR 00D3
ENCODING 211
SWIDTH 786 0
DWIDTH 47 0
BBX 0 0 0 0
BITMAP
ENDCHAR
STARTCHAR 00D4
ENCODING 212
SWIDTH 786 0
DWIDTH 47 0
BBX 0 0 0 0
BITMAP
ENDCHAR
STARTCHAR 00D5
ENCODING 213
SWIDTH 786 0
DWIDTH 47 0
BBX 0 0 0 0
BITMAP
ENDCHAR
STARTCHAR 00D6
ENCODING 214
SWIDTH 786 0
DWIDTH 47 0
BBX 0 0 0 0
BITMAP
ENDCHAR
STARTCHAR 00D7
ENCODING 215
SWIDTH 502 0
DWIDTH 30 0
BBX 0 0 0 0
BITMAP
ENDCHAR
STARTCHAR 00D8
ENCODING 216
SWIDTH 786 0
DWIDTH 47 0
BBX 0 0 0 0
BITMAP
ENDCHAR
STARTCHAR 00D9
ENCODING 217
SWIDTH 736 0
DWIDTH 44 0
BBX 0 0 0 0
BITMAP
ENDCHAR
STARTCHAR 00DA
ENCODING 218
SWIDTH 736 0
DWIDTH 44 0
BBX 0 0 0 0
BITMAP
ENDCHAR
STARTCHAR 00DB
ENCODING 219
SWIDTH 736 0
DWIDTH 44 0
BBX 0 0 0 0
BITMAP
ENDCHAR
STARTCHAR 00DC
ENCODING 220
SWIDTH 736 0
DWIDTH 44 0
BBX 0 0 0 0
BITMAP
ENDCHAR
STARTCHAR 00DD
ENCODING 221
SWIDTH 602 0
DWIDTH 36 0
BBX 0 0 0 0
BITMAP
ENDCHAR
STARTCHAR 00DE
ENCODING 222
SWIDTH 552 0
DWIDTH 33 0
BBX 0 0 0 0
BITMAP
ENDCHAR
STARTCHAR 00DF
ENCODING 223
SWIDTH 619 0
DWIDTH 37 0
BBX 0 0 0 0
BITMAP
ENDCHAR
STARTCHAR 00E0
ENCODING 224
SWIDTH 452 0
DWIDTH 27 0
BBX 0 0 0 0
BITMAP
ENDCHAR
STARTCHAR 00E1
ENCODING 225
SWIDTH 452 0
DWIDTH 27 0
BBX 0 0 0 0
BITMAP
ENDCHAR
STARTCHAR 00E2
ENCODING 226
SWIDTH 452 0
DWIDTH 27 0
BBX 0 0 0 0
BITMAP
ENDCHAR
STARTCHAR 00E3
ENCODING 227
SWIDTH 452 0
DWIDTH 27 0
BBX 0 0 0 0
BITMAP
ENDCHAR
STARTCHAR 00E4
ENCODING 228
SWIDTH 452 0
DWIDTH 27 0
BBX 0 0 0 0
BITMAP
ENDCHAR
STARTCHAR 00E5
ENCODING 229
SWIDTH 452 0
DWIDTH 27 0
BBX 0 0 0 0
BITMAP
ENDCHAR
STARTCHAR 00E6
ENCODING 230
SWIDTH 720 0
DWIDTH 43 0
BBX 0 0 0 0
BITMAP
ENDCHAR
STARTCHAR 00E7
ENCODING 231
SWIDTH 452 0
DWIDTH 27 0
BBX 0 0 0 0
BITMAP
ENDCHAR
STARTCHAR 00E8
ENCODING 232
SWIDTH 452 0
DWIDTH 27 0
BBX 0 0 0 0
BITMAP
ENDCHAR
STARTCHAR 00E9
ENCODING 233
SWIDTH 452 0
DWIDTH 27 0
BBX 0 0 0 0
BITMAP
ENDCHAR
STARTCHAR 00EA
ENCODING 234
SWIDTH 452 0
DWIDTH 27 0
BBX 0 0 0 0
BITMAP
ENDCHAR
STARTCHAR 00EB
ENCODING 235
SWIDTH 452 0
DWIDTH 27 0
BBX 0 0 0 0
BITMAP
ENDCHAR
STARTCHAR 00EC
ENCODING 236
SWIDTH 251 0
DWIDTH 15 0
BBX 0 0 0 0
BITMAP
ENDCHAR
STARTCHAR 00ED
ENCODING 237
SWIDTH 251 0
DWIDTH 15 0
BBX 0 0 0 0
BITMAP
ENDCHAR
STARTCHAR 00EE
ENCODING 238
SWIDTH 251 0
DWIDTH 15 0
BBX 0 0 0 0
BITMAP
ENDCHAR
STARTCHAR 00EF
ENCODING 239
SWIDTH 251 0
DWIDTH 15 0
BBX 0 0 0 0
BITMAP
ENDCHAR
STARTCHAR 00F0
ENCODING 240
SWIDTH 552 0
DWIDTH 33 0
BBX 0 0 0 0
BITMAP
ENDCHAR
STARTCHAR 00F1
ENCODING 241
SWIDTH 535 0
DWIDTH 32 0
BBX 0 0 0 0
BITMAP
ENDCHAR
STARTCHAR 00F2
ENCODING 242
SWIDTH 502 0
DWIDTH 30 0
BBX 0 0 0 0
BITMAP
ENDCHAR
STARTCHAR 00F3
ENCODING 243
SWIDTH 502 0
DWIDTH 30 0
BBX 0 0 0 0
BITMAP
ENDCHAR
STARTCHAR 00F4
ENCODING 244
SWIDTH 502 0
DWIDTH 30 0
BBX 0 0 0 0
BITMAP
ENDCHAR
STARTCHAR 00F5
ENCODING 245
SWIDTH 502 0
DWIDTH 30 0
BBX 0 0 0 0
BITMAP
ENDCHAR
STARTCHAR 00F6
ENCODING 246
SWIDTH 502 0
DWIDTH 30 0
BBX 0 0 0 0
BITMAP
ENDCHAR
STARTCHAR 00F7
ENCODING 247
SWIDTH 502 0
DWIDTH 30 0
BBX 0 0 0 0
BITMAP
ENDCHAR
STARTCHAR 00F8
ENCODING 248
SWIDTH 502 0
DWIDTH 30 0
BBX 0 0 0 0
BITMAP
ENDCHAR
STARTCHAR 00F9
ENCODING 249
SWIDTH 519 0
DWIDTH 31 0
BBX 0 0 0 0
BITMAP
ENDCHAR
STARTCHAR 00FA
ENCODING 250
SWIDTH 519 0
DWIDTH 31 0
BBX 0 0 0 0
BITMAP
ENDCHAR
STARTCHAR 00FB
ENCODING 251
SWIDTH 519 0
DWIDTH 31 0
BBX 0 0 0 0
BITMAP
ENDCHAR
STARTCHAR 00FC
ENCODING 252
SWIDTH 519 0
DWIDTH 31 0
BBX 0 0 0 0
BITMAP
ENDCHAR
STARTCHAR 00FD
ENCODING 253
SWIDTH 418 0
DWIDTH 25 0
BBX 0 0 0 0
BITMAP
ENDCHAR
STARTCHAR 00FE
ENCODING 254
SWIDTH 502 0
DWIDTH 30 0
BBX 0 0 0 0
BITMAP
ENDCHAR
STARTCHAR 00FF
ENCODING 255
SWIDTH 418 0
DWIDTH 25 0
BBX 0 0 0 0
BITMAP
ENDCHAR
STARTCHAR 0131
ENCODING 305
SWIDTH 251 0
DWIDTH 15 0
BBX 0 0 0 0
BITMAP
ENDCHAR
STARTCHAR 02C6
ENCODING 710
SWIDTH 502 0
DWIDTH 30 0
BBX 0 0 0 0
BITMAP
ENDCHAR
STARTCHAR 02C7
ENCODING 711
SWIDTH 502 0
DWIDTH 30 0
BBX 0 0 0 0
BITMAP
ENDCHAR
STARTCHAR 02C9
ENCODING 713
SWIDTH 502 0
DWIDTH 30 0
BBX 0 0 0 0
BITMAP
ENDCHAR
STARTCHAR 02D8
ENCODING 728
SWIDTH 502 0
DWIDTH 30 0
BBX 0 0 0 0
BITMAP
ENDCHAR
STARTCHAR 02D9
ENCODING 729
SWIDTH 502 0
DWIDTH 30 0
BBX 0 0 0 0
BITMAP
ENDCHAR
STARTCHAR 02DA
ENCODING 730
SWIDTH 502 0
DWIDTH 30 0
BBX 0 0 0 0
BITMAP
ENDCHAR
STARTCHAR 02DB
ENCODING 731
SWIDTH 502 0
DWIDTH 30 0
BBX 0 0 0 0
BITMAP
ENDCHAR
STARTCHAR 02DC
ENCODING 732
SWIDTH 502 0
DWIDTH 30 0
BBX 0 0 0 0
BITMAP
ENDCHAR
STARTCHAR 02DD
ENCODING 733
SWIDTH 502 0
DWIDTH 30 0
BBX 0 0 0 0
BITMAP
ENDCHAR
STARTCHAR 037E
ENCODING 894
SWIDTH 987 0
DWIDTH 59 0
BBX 58 58 0 -10
BITMAP
0000001F00000000
0000001F00000000
0000001F00000000
0000001F00000000
0000001F00000000
0000001F00000000
0000001F00000000
0000001F00000000
0000001F00000000
0000001F00000000
0000001F00000000
0000001F00000000
0000001F00000000
0000001F00000000
0000001F00000000
0000001F00000000
0000001F00000000
0000001F00000000
0000001F00000000
0000001F00000000
0000001F00000000
0000001F00000000
0000001F00000000
0000001F00000000
0000001F00000000
0000001F00000000
0000001F00000000
FFFFFFFFFFFFFFC0
FFFFFFFFFFFFFFC0
FFFFFFFFFFFFFFC0
FFFFFFFFFFFFFFC0
0000001F00000000
0000001F00000000
0000001F00000000
0000001F00000000
0000001F00000000
0000001F00000000
0000001F00000000
0000001F00000000
0000001F00000000
0000001F00000000
0000001F00000000
0000001F00000000
0000001F00000000
0000001F00000000
0000001F00000000
0000001F00000000
0000001F00000000
0000001F00000000
0000001F00000000
0000001F00000000
0000001F00000000
0000001F00000000
0000001F00000000
0000001F00000000
0000001F00000000
0000001F00000000
0000001F00000000
ENDCHAR
STARTCHAR 2013
ENCODING 8211
SWIDTH 535 0
DWIDTH 32 0
BBX 0 0 0 0
BITMAP
ENDCHAR
STARTCHAR 2014
ENCODING 8212
SWIDTH 1004 0
DWIDTH 60 0
BBX 0 0 0 0
BITMAP
ENDCHAR
STARTCHAR 2018
ENCODING 8216
SWIDTH 267 0
DWIDTH 16 0
BBX 0 0 0 0
BITMAP
ENDCHAR
STARTCHAR 2019
ENCODING 8217
SWIDTH 267 0
DWIDTH 16 0
BBX 0 0 0 0
BITMAP
ENDCHAR
STARTCHAR 201A
ENCODING 8218
SWIDTH 267 0
DWIDTH 16 0
BBX 0 0 0 0
BITMAP
ENDCHAR
STARTCHAR 201C
ENCODING 8220
SWIDTH 452 0
DWIDTH 27 0
BBX 0 0 0 0
BITMAP
ENDCHAR
STARTCHAR 201D
ENCODING 8221
SWIDTH 452 0
DWIDTH 27 0
BBX 0 0 0 0
BITMAP
ENDCHAR
STARTCHAR 201E
ENCODING 8222
SWIDTH 452 0
DWIDTH 27 0
BBX 0 0 0 0
BITMAP
ENDCHAR
STARTCHAR 2020
ENCODING 8224
SWIDTH 502 0
DWIDTH 30 0
BBX 0 0 0 0
BITMAP
ENDCHAR
STARTCHAR 2021
ENCODING 8225
SWIDTH 502 0
DWIDTH 30 0
BBX 0 0 0 0
BITMAP
ENDCHAR
STARTCHAR 2022
ENCODING 8226
SWIDTH 502 0
DWIDTH 30 0
BBX 0 0 0 0
BITMAP
ENDCHAR
STARTCHAR 2026
ENCODING 8230
SWIDTH 1004 0
DWIDTH 60 0
BBX 0 0 0 0
BITMAP
ENDCHAR
STARTCHAR 2039
ENCODING 8249
SWIDTH 301 0
DWIDTH 18 0
BBX 0 0 0 0
BITMAP
ENDCHAR
STARTCHAR 203A
ENCODING 8250
SWIDTH 301 0
DWIDTH 18 0
BBX 0 0 0 0
BITMAP
ENDCHAR
STARTCHAR 2044
ENCODING 8260
SWIDTH 167 0
DWIDTH 10 0
BBX 0 0 0 0
BITMAP
ENDCHAR
STARTCHAR 20A3
ENCODING 8355
SWIDTH 502 0
DWIDTH 30 0
BBX 0 0 0 0
BITMAP
ENDCHAR
STARTCHAR 20A4
ENCODING 8356
SWIDTH 502 0
DWIDTH 30 0
BBX 0 0 0 0
BITMAP
ENDCHAR
STARTCHAR 20A7
ENCODING 8359
SWIDTH 987 0
DWIDTH 59 0
BBX 0 0 0 0
BITMAP
ENDCHAR
STARTCHAR 20AC
ENCODING 8364
SWIDTH 502 0
DWIDTH 30 0
BBX 0 0 0 0
BITMAP
ENDCHAR
STARTCHAR 2116
ENCODING 8470
SWIDTH 1121 0
DWIDTH 67 0
BBX 0 0 0 0
BITMAP
ENDCHAR
STARTCHAR 2122
ENCODING 8482
SWIDTH 736 0
DWIDTH 44 0
BBX 0 0 0 0
BITMAP
ENDCHAR
STARTCHAR 2202
ENCODING 8706
SWIDTH 502 0
DWIDTH 30 0
BBX 0 0 0 0
BITMAP
ENDCHAR
STARTCHAR 2206
ENCODING 8710
SWIDTH 535 0
DWIDTH 32 0
BBX 0 0 0 0
BITMAP
ENDCHAR
STARTCHAR 220F
ENCODING 8719
SWIDTH 736 0
DWIDTH 44 0
BBX 0 0 0 0
BITMAP
ENDCHAR
STARTCHAR 2211
ENCODING 8721
SWIDTH 586 0
DWIDTH 35 0
BBX 0 0 0 0
BITMAP
ENDCHAR
STARTCHAR 2212
ENCODING 8722
SWIDTH 502 0
DWIDTH 30 0
BBX 0 0 0 0
BITMAP
ENDCHAR
STARTCHAR 2215
ENCODING 8725
SWIDTH 167 0
DWIDTH 10 0
BBX 0 0 0 0
BITMAP
ENDCHAR
STARTCHAR 2219
ENCODING 8729
SWIDTH 251 0
DWIDTH 15 0
BBX 0 0 0 0
BITMAP
ENDCHAR
STARTCHAR 221A
ENCODING 8730
SWIDTH 502 0
DWIDTH 30 0
BBX 0 0 0 0
BITMAP
ENDCHAR
STARTCHAR 221E
ENCODING 8734
SWIDTH 502 0
DWIDTH 30 0
BBX 0 0 0 0
BITMAP
ENDCHAR
STARTCHAR 222B
ENCODING 8747
SWIDTH 318 0
DWIDTH 19 0
BBX 0 0 0 0
BITMAP
ENDCHAR
STARTCHAR 2248
ENCODING 8776
SWIDTH 502 0
DWIDTH 30 0
BBX 0 0 0 0
BITMAP
ENDCHAR
STARTCHAR 2264
ENCODING 8804
SWIDTH 502 0
DWIDTH 30 0
BBX 0 0 0 0
BITMAP
ENDCHAR
STARTCHAR 2265
ENCODING 8805
SWIDTH 502 0
DWIDTH 30 0
BBX 0 0 0 0
BITMAP
ENDCHAR
STARTCHAR F001
ENCODING 61441
SWIDTH 519 0
DWIDTH 31 0
BBX 0 0 0 0
BITMAP
ENDCHAR
STARTCHAR F002
ENCODING 61442
SWIDTH 535 0
DWIDTH 32 0
BBX 0 0 0 0
BITMAP
ENDCHAR
STARTCHAR FB01
ENCODING 64257
SWIDTH 519 0
DWIDTH 31 0
BBX 0 0 0 0
BITMAP
ENDCHAR
STARTCHAR FB02
ENCODING 64258
SWIDTH 535 0
DWIDTH 32 0
BBX 0 0 0 0
BITMAP
ENDCHAR
ENDFONT
